<?xml version="1.0" encoding="utf-8"?>
<!-- Generator: Adobe Illustrator 26.2.1, SVG Export Plug-In . SVG Version: 6.00 Build 0)  -->
<svg version="1.1" id="Layer_1" xmlns="http://www.w3.org/2000/svg" xmlns:xlink="http://www.w3.org/1999/xlink" x="0px" y="0px"
	 viewBox="0 0 216 108" style="enable-background:new 0 0 216 108;" xml:space="preserve">
<style type="text/css">
	.st0{fill-rule:evenodd;clip-rule:evenodd;fill:#8893A2;}
</style>
<polyline class="st0" points="54.5,74.4 57.6,71.5 61.5,69.5 66.2,66.7 70.1,62.8 72.9,58.1 76.5,51.9 81.4,46.8 95.6,34.7 
	101.5,31 104.2,30 106.8,29.9 110.8,31 115.7,32.6 122.1,34.9 128.2,38 131.5,39.8 135.1,41 138.2,42.1 140.9,44 145,46.7 
	146.6,47.5 147.5,48.7 147.4,50.4 146.8,51.1 145.8,51.3 144.7,50.9 143.4,50.3 141.6,49.4 137.6,48.4 133.5,47.3 129.7,45.5 
	128.4,44.7 124.6,43.6 120.4,43.2 112.3,41.9 107.6,40.9 106.4,40.9 104.4,41.4 102.9,42.5 101.6,44 97.3,48.1 94,51 91.9,54.5 
	91.6,56.4 92,58.3 93.4,60.3 95.3,62 98.8,65.8 101.2,70.4 102.2,75.4 102.2,76.7 102,77.7 101.1,78.3 100.5,78.1 99.8,77.7 
	98,76.5 94.4,74.4 90.4,73.1 86.1,72.8 80.4,73.9 74.8,75.8 68.6,77.8 62.3,79.1 58,79.2 55,78.6 54,77.9 53.6,77 53.7,75.8 
	54.5,74.4 "/>
<polyline class="st0" points="126.6,63.8 125.7,68.3 123.2,72.2 119.4,74.7 114.8,75.6 110.3,74.7 106.5,72.2 103.9,68.3 103,63.8 
	103.9,59.3 106.5,55.5 110.3,52.9 114.8,52 119.4,52.9 123.2,55.5 125.7,59.3 126.6,63.8 "/>
</svg>
