<?xml version="1.0" encoding="utf-8"?>
<!-- Generator: Adobe Illustrator 26.2.1, SVG Export Plug-In . SVG Version: 6.00 Build 0)  -->
<svg version="1.1" id="Layer_1" xmlns="http://www.w3.org/2000/svg" xmlns:xlink="http://www.w3.org/1999/xlink" x="0px" y="0px"
	 viewBox="0 0 214 108" style="enable-background:new 0 0 214 108;" xml:space="preserve">
<style type="text/css">
	.st0{fill-rule:evenodd;clip-rule:evenodd;fill:#8893A2;}
</style>
<g>
	<polyline class="st0" points="68,40.9 68.7,38.3 69.7,37.1 70.2,36.9 70.7,36.9 71.3,37.5 71.5,38.5 71.5,38.5 72.5,44.9 
		74.7,51.1 77.9,56.7 80.8,59.8 84.3,62.2 88.2,63.7 94.2,64.1 100,62.5 104.9,59.2 108,55 110.1,50.2 112.2,41 113.5,34.8 
		115,30.5 117,27.8 118.5,26.8 120.3,26.7 121.8,27.5 122.7,29 123,30.5 122.7,32.1 121,34.9 119.5,37.4 118.5,40.1 117.8,47 
		118.3,53.4 119.5,56.2 121.4,58.7 125.9,61.7 131.1,63.5 136.5,63.9 142.9,62.9 148.9,60.3 153.9,56.3 154.3,55.9 155.5,54.7 
		156.9,53.8 158.6,53.7 160,54.5 160.5,56.2 160,58.1 157.2,61.3 152.8,64 146.1,68.1 140.3,71.7 138.2,72.9 130.8,76.2 123.2,78.9 
		115.2,80.6 107.1,81.3 98.5,80.2 90.4,77.2 83.2,72.6 77.1,66.4 72.9,60.3 69.4,53.9 68,45.1 68,40.9 	"/>
	<polyline class="st0" points="100.4,48.6 100.7,52.3 99.3,55.7 96.6,58.2 93.1,59.3 89.5,58.7 86.5,56.7 84.6,53.5 84.3,49.8 
		85.7,46.4 88.4,43.9 91.9,42.8 95.5,43.4 98.5,45.4 100.4,48.6 	"/>
	<polyline class="st0" points="139.2,48.1 139.5,51.8 138.2,55.2 135.5,57.7 132,58.8 128.4,58.2 125.3,56.2 123.5,53 123.2,49.3 
		124.5,45.9 127.2,43.4 130.7,42.3 134.4,42.9 137.4,44.9 139.2,48.1 	"/>
</g>
</svg>
