<?xml version="1.0" encoding="utf-8"?>
<!-- Generator: Adobe Illustrator 26.2.1, SVG Export Plug-In . SVG Version: 6.00 Build 0)  -->
<svg version="1.1" id="Layer_1" xmlns="http://www.w3.org/2000/svg" xmlns:xlink="http://www.w3.org/1999/xlink" x="0px" y="0px"
	 viewBox="0 0 213 107" style="enable-background:new 0 0 213 107;" xml:space="preserve">
<style type="text/css">
	.st0{fill-rule:evenodd;clip-rule:evenodd;fill:#8893A2;}
</style>
<polyline class="st0" points="154.7,44.4 153.8,48.8 151.3,52.6 147.5,55.1 143.1,56 138.7,55.1 135,52.6 132.5,48.8 131.6,44.4 
	132.5,40 135,36.3 138.7,33.7 143.1,32.9 147.5,33.7 151.3,36.3 153.8,40 154.7,44.4 "/>
<polyline class="st0" points="53,66 59.5,57.9 67.5,51.3 76.7,46.4 86.6,43.4 97,42.4 107.3,43.5 117.3,46.5 126.4,51.5 134.4,58.2 
	128.7,58.3 123.1,59.8 118.1,62.5 117.8,62.7 111,66.4 106.6,67.3 102.1,67.3 92.6,65.5 90.4,64.9 88.9,64.6 83.8,63.7 92.6,56.5 
	81.6,55.6 60.6,63.7 53,66 "/>
</svg>
