<?xml version="1.0" encoding="utf-8"?>
<!-- Generator: Adobe Illustrator 26.2.1, SVG Export Plug-In . SVG Version: 6.00 Build 0)  -->
<svg version="1.1" id="Layer_1" xmlns="http://www.w3.org/2000/svg" xmlns:xlink="http://www.w3.org/1999/xlink" x="0px" y="0px"
	 viewBox="0 0 214 108" style="enable-background:new 0 0 214 108;" xml:space="preserve">
<style type="text/css">
	.st0{fill-rule:evenodd;clip-rule:evenodd;fill:#8893A2;}
</style>
<polyline class="st0" points="121.5,48.1 120.3,54 116.9,59.1 111.9,62.4 105.9,63.6 100,62.4 95,59.1 91.6,54 90.4,48.1 91.6,42.1 
	95,37.1 100,33.7 105.9,32.6 111.9,33.7 116.9,37.1 120.3,42.1 121.5,48.1 "/>
<polyline class="st0" points="147.3,20.5 149.7,21.3 149.6,34.3 147.9,47.2 144.5,59.8 140.3,68.1 134.4,75.2 126.9,80.8 
	118.4,84.6 109.3,86.4 99.3,85.7 89.9,82.5 81.6,77 75,69.4 69.7,58.7 66.4,47.2 64.7,35.2 64.3,23.2 67.3,22.2 68.3,26.6 
	72.4,39.8 78.7,52.3 84.8,59.7 92.4,65.5 99.2,68.7 106.6,70 114.1,69.3 121.5,66.3 127.9,61.6 133.9,54.5 138.4,46.5 143.3,33.6 
	147.3,20.5 "/>
<polyline class="st0" points="85.2,24 84.1,28 81.2,30.9 77.2,32 73.2,30.9 70.3,28 69.3,24 70.3,20 73.2,17.1 77.2,16.1 81.2,17.1 
	84.1,20 85.2,24 "/>
</svg>
