<?xml version="1.0" encoding="utf-8"?>
<!-- Generator: Adobe Illustrator 26.2.1, SVG Export Plug-In . SVG Version: 6.00 Build 0)  -->
<svg version="1.1" id="Layer_1" xmlns="http://www.w3.org/2000/svg" xmlns:xlink="http://www.w3.org/1999/xlink" x="0px" y="0px"
	 viewBox="0 0 216 107" style="enable-background:new 0 0 216 107;" xml:space="preserve">
<style type="text/css">
	.st0{fill-rule:evenodd;clip-rule:evenodd;fill:#8893A2;}
</style>
<polyline class="st0" points="98.7,32.4 97.9,35.9 95.7,38.7 92.5,40.3 88.9,40.3 85.7,38.7 83.4,35.9 82.6,32.4 83.4,28.9 
	85.7,26.1 88.9,24.6 92.5,24.6 95.7,26.1 97.9,28.9 98.7,32.4 "/>
<polyline class="st0" points="140.1,25.7 139.6,28.7 137.9,31.3 135.1,33.5 130.9,35.5 127.6,36.9 124.8,38.8 123.3,40.8 122.8,43 
	123.2,44.6 124.3,45.7 125.9,46.6 127.7,47.4 132,49.5 134.2,52 134.9,54.3 135,56.8 134.2,59.8 132.8,62.5 128.6,67.7 126.5,70.5 
	125.4,73.9 125.3,77.4 126.2,80.8 127.7,84.3 128.2,88.1 127.8,90.4 126.5,92.4 124.6,93.8 121.5,94.2 118.5,93 116.5,90.6 
	115.2,87.7 111.5,81 108.7,76.3 107.8,74 107.5,71.6 107.7,69.5 108.5,67.6 109.7,65.9 111.8,64.2 113.5,61.9 113.7,59.1 
	112.4,56.5 110,55 105.4,53.2 101.6,50.4 99.9,47.8 98.9,44.8 99,41.2 100.2,37.9 102.5,35.2 105.6,33.5 115.4,29.1 124.7,23.6 
	129.3,20.8 131.8,20 134.4,19.9 137.1,20.9 139.1,22.9 140.1,25.7 "/>
</svg>
