<?xml version="1.0" encoding="utf-8"?>
<!-- Generator: Adobe Illustrator 26.2.1, SVG Export Plug-In . SVG Version: 6.00 Build 0)  -->
<svg version="1.1" id="Layer_1" xmlns="http://www.w3.org/2000/svg" xmlns:xlink="http://www.w3.org/1999/xlink" x="0px" y="0px"
	 viewBox="0 0 216 108" style="enable-background:new 0 0 216 108;" xml:space="preserve">
<style type="text/css">
	.st0{fill:#0A88C2;}
	.st1{fill-rule:evenodd;clip-rule:evenodd;fill:#8893A2;}
</style>
<path class="st0" d="M129.1,48.7c0.5-0.2,1-0.4,1.5-0.6C130.1,48.3,129.6,48.5,129.1,48.7z"/>
<polyline class="st1" points="55.1,27.3 59.2,26.4 63.2,27.3 66.5,28.2 69.9,28.2 73,28 80.6,26.9 83.9,26 87.2,25.9 90.5,27.1 
	93.3,28 96.2,28 100.4,28.3 104.2,30.1 108.6,34.2 111.9,39.3 114.4,43.2 117.8,46.3 120.4,48.7 122.1,51.7 122.8,55.2 123.9,59.4 
	125.2,64.1 126.4,67.9 129.2,70.8 131.9,73.4 133.5,76.8 134.1,78.8 135,80.5 136.6,81.8 138.6,82.5 139.8,82.9 140.5,83.8 
	140.5,84.4 140.3,85 140.2,85.4 140.4,88.1 141.5,90.8 142.4,92.9 142.7,94.1 142.7,94.6 142.4,95 141.7,95.2 141.1,95.1 
	140.6,94.7 139,92.9 137.4,90.1 135.3,86.8 132.8,83.9 129.3,80.2 126.1,76.9 122.6,74.1 120.4,72.2 118.9,69.8 116.7,65.4 
	113.5,58.2 110.9,53.3 106.8,49.6 106,49 98.1,44.1 95.4,42 93.5,39.2 92.4,37.2 91.5,36.1 90.5,35.4 88,34.5 83.5,33.9 73.6,32.1 
	65.6,30.7 63.5,31.1 61.3,31.2 59.5,29.9 57.5,28.4 55.2,27.7 54.9,27.7 54.8,27.6 54.8,27.6 54.7,27.6 54.7,27.6 54.7,27.6 
	54.7,27.5 54.7,27.5 54.8,27.5 55.1,27.3 "/>
<polyline class="st1" points="88.7,26.3 76.4,27.8 75.5,25 75.6,22.1 76.7,19.4 78.8,17.6 81.4,16.8 84.1,17.4 87.1,19.3 89.2,22 
	89.5,24.2 88.7,26.3 "/>
</svg>
