<?xml version="1.0" encoding="utf-8"?>
<!-- Generator: Adobe Illustrator 26.2.1, SVG Export Plug-In . SVG Version: 6.00 Build 0)  -->
<svg version="1.1" id="LOGO" xmlns="http://www.w3.org/2000/svg" xmlns:xlink="http://www.w3.org/1999/xlink" x="0px" y="0px"
	 viewBox="0 0 1023.4 317.5" style="enable-background:new 0 0 1023.4 317.5;" xml:space="preserve">
<style type="text/css">
	.st0{display:none;fill:#D20515;}
	.st1{display:none;fill:#FFFFFF;}
	.st2{display:none;}
	.st3{display:inline;fill:#FFFFFF;}
	.st4{display:inline;fill-rule:evenodd;clip-rule:evenodd;fill:#D20515;}
	.st5{display:inline;fill-rule:evenodd;clip-rule:evenodd;}
	.st6{fill:#272323;}
	.st7{fill:#33779C;}
	.st8{fill:#35779C;}
	.st9{fill:#32789E;}
	.st10{fill:#34779B;}
	.st11{fill:#32769A;}
	.st12{fill:#367BA0;}
	.st13{fill:#2B2727;}
	.st14{fill:#2C2929;}
	.st15{fill:#33769A;}
	.st16{fill:#377A9E;}
	.st17{fill:#2B2828;}
	.st18{fill:#2A2727;}
	.st19{fill:#377B9F;}
	.st20{fill:#2E2B2B;}
	.st21{fill:#2D2929;}
	.st22{fill:#2D2A2A;}
	.st23{fill:#2F2C2C;}
	.st24{fill:#397B9E;}
	.st25{fill:#343232;}
	.st26{fill:#4F839E;}
	.st27{fill:#8DA8B1;}
	.st28{fill:#678FA2;}
	.st29{fill:#C4E1E7;}
	.st30{fill:#FEFEFE;}
</style>
<rect x="56.7" y="-1422.9" class="st0" width="255.1" height="204.1"/>
<path class="st1" d="M267-1315.5c0.1,0.5-0.3,0.9-1.2,1.5l-0.6,0.3l0.2,0.4c0.1,0.2-0.1,0.6-0.5,0.8l-0.8,0.4
	c-0.4,0.2-0.8,0.2-0.9-0.1l-0.2-0.3l-1.1,0.5l0.2,0.4c0.1,0.2-0.1,0.6-0.5,0.8l-0.9,0.4c-0.4,0.2-0.8,0.1-0.9-0.1l-0.1-0.3
	c-3.3,1.5-6.9,3.2-10.7,4.9l0.2,0.5c0.1,0.2-0.1,0.6-0.5,0.8l-0.9,0.4c-0.4,0.2-0.8,0.1-0.9-0.1l-0.2-0.5l-1.2,0.6l0.2,0.5
	c0.1,0.2-0.1,0.6-0.5,0.8l-0.9,0.4c-0.4,0.2-0.8,0.1-0.9-0.1l-0.2-0.5c-1.7,0.7-3.6,1-4.9-1.6c-0.6-1.2-0.6-3.9-1.1-5.3
	c-0.2-0.5-0.6-0.8-1.1-0.9c-16.6-3.2-22.2,0.4-32.9-2.3c-3.4-0.8-5.2-3.9-9.3-3.9c-9-0.3-11.6-0.1-21.4-0.5
	c-0.4,1.4-0.5,1.7-0.5,1.7l-34.3-0.2l5.2,2.6l1.7,15.1c0,0-1.4,0.4-1.8,0.4c0.3,3,0.6,7.1,0.8,10.8c0.1,3.3,0.3,6.7,0.3,8.9
	c0,1.4-0.3,2.8-1,4.1c-0.7,1.1-1.5,2-2.6,2.8c-0.3,0.2-1.6,1.1-3.2,2s-3.4,1.9-4.3,2.3c0.1,0.4,0.3,0.8,0.5,1.2
	c-20.9,10.1-46.7,13.5-55.1,29.5c-1,1.9-4.4,0.9-4.5-1.1c0-0.9,0-2.4,0-3.2h-0.3c-0.3,0-0.5-0.4-0.4-0.8v-0.9c0-0.4,0.3-0.8,0.5-0.8
	H74c0.1-0.9,0.3-1.8,0.5-2.7l-0.3-0.1c-0.2-0.1-0.3-0.5-0.2-0.9l0.3-0.9c0.2-0.4,0.5-0.7,0.7-0.6l0.3,0.1c1.5-3.5,4.4-5,5.7-8.3
	l-0.2-0.1c-0.3-0.1-0.3-0.5-0.2-0.9l0.3-0.9c0.2-0.4,0.5-0.7,0.7-0.6l0.2,0.1c0.2-0.5,0.4-1,0.7-1.5l-0.3-0.2
	c-0.2-0.2-0.2-0.6,0-0.9l0.5-0.8c0.2-0.4,0.6-0.5,0.8-0.4l0.1,0.1h0.1c0.1,0,0.1,0,0.2-0.1s0.3-0.3,0.4-0.4c1.3-1,3.1-1,4.4-0.1
	c1.3,0.8,6.4,3.7,11.4-0.7c8.1-7.3,17.6-17.2,24.8-17.5c-1.9-4.2-5.3-12.9-5.7-16.2l-2.4-0.5c-1.2-2.7-4.3-15.1-5.2-24.5
	c0,0-1-10.1,0-13.6c-0.6-0.1-1.6,0.8-1.8,0.8c-1.3-3.2,2.9-30.3,7.2-38.2l6.4-2.6c-0.7-0.1-5.3-0.3-17.6-1.3
	c-6.8,6.1-14.7,12.6-18.8,16.1c-0.7,0.5-1.8,4.4-1.8,4.4s-2,1.8-3.9,3.1c-2.5,1.7-8.6,3.1-9.9,1c-0.3-0.5-0.2-0.7,0-1
	c0.9-1,4.5-2.7,5.7-4.9c-1.9,1-4.1,2-5.8,1.8c-0.7,0-1.1-1.8-0.2-2.2c2.6-1.1,4.6-1.6,6.1-3.7s3.2-3.4,5.6-3.5
	c0,0,11.4-14.9,18.1-22c1.9-1.9,5.3-1.3,5.3-1.3l0.6-2.3c0,0,23-2.8,33.8,0.8c-0.2-6.5,2.7-15.2,12.9-15.2c5.2,0,12.9,4.6,14,10.2
	c0.3,1.7-0.7,2.9-1.2,5.1c-0.9,3.3,0.4,7,0,8.2c-0.3,0.9-1.4,0.9-2.3,2.2c-0.8,1.3-1.5,2.6-2.1,4l-1.4,3.2l-7.2-0.5
	c-2.6,5.7-8,17.2-9.9,28.7l0,0c5.6,0.5,31.2,4.2,31.2,4.2l0.6,2.1c0,0,10.8,1.3,19.6,5.5c2,0.5,6.9-0.3,10.2,1.2
	c0.2-0.1,0.8-0.7,1-0.8c11.5,3.5,21,9.6,32.1,12.2c0,0,5.2,1.3,6.9,1.6c2.9,0.6,5.9,1,8.9,1.1c3.5,0.3,5.5,0.2,8.1,0.4
	C264-1317.9,266.3-1318.2,267-1315.5 M283.5-1350.4c-7.8,0-14.2,6.3-14.2,14.2c0,7.8,6.3,14.2,14.2,14.2s14.2-6.3,14.2-14.2
	C297.6-1344.1,291.3-1350.4,283.5-1350.4C283.5-1350.4,283.4-1350.4,283.5-1350.4L283.5-1350.4z"/>
<path class="st2" d="M561.3-1275.6c0,35.4-16.6,54.2-61.4,54.2h-103v-199h99.3c46.2,0,62.2,18.3,62.2,52c0,25.7-9.7,37.4-37.1,44.2
	l-5.1,1.4l4.6,0.9C551.6-1315.1,561.3-1303.6,561.3-1275.6z M444.3-1337.3H486c16.6,0,24-7.1,24-24.3c0-18-6.9-25.1-24-25.1h-41.7
	V-1337.3z M513-1280.5c0-18.3-7.4-26-24.3-26h-44.5v51.4h44.5C506.5-1255.1,513-1262.5,513-1280.5z M593.6-1286.2v-134.2h49.7v132.8
	c0,22,10,30.3,36.8,30.3s36.9-8.3,36.9-30.3v-132.8h49.7v134.2c0,46.8-27.1,68.2-86.5,68.2S593.7-1239.4,593.6-1286.2L593.6-1286.2z
	 M999.6-1420.4v199h-60.5l-84.5-143.9v143.9h-46.2v-199h60.5l84.5,143.9v-143.8L999.6-1420.4L999.6-1420.4z M1040.5-1420.4h88.8
	c69.7,0,87.9,28.6,87.9,99.3c0,68.8-20,99.6-87.9,99.6h-88.8V-1420.4z M1127.8-1259.4c29.1,0,38.5-15.1,38.5-61.7
	c0-46.2-9.4-61.4-38.5-61.4h-37.7v123L1127.8-1259.4z M1253.4-1420.4h139.3v38H1303v42h74.5v37.4H1303v43.7h91.6v38h-141.3v-199.1
	H1253.4z M1424.1-1229.1v-38.8c21.4,7.3,43.9,10.9,66.5,10.8c22.8,0,32.8-6,32.8-21.4c0-13.4-4.3-17.4-22.6-21.1l-33.1-6.8
	c-34.5-7.1-46-21.1-46-55.1c0-43.7,25.7-62.5,77.4-62.5c23.4,0,45.4,4,63.4,10.8v38.8c-19.4-6.9-39.9-10.5-60.5-10.6
	c-24.6,0-32.8,6.6-32.8,22c0,12.8,5.7,16.6,21.7,20l32.3,6.8c37.4,8,47.7,20.6,47.7,56.2c0,42.5-26.3,62-79.9,62
	C1468.1-1217.8,1445.5-1221.6,1424.1-1229.1z M1605.7-1420.4h49.7v161h85.4v38h-135L1605.7-1420.4z M1771.8-1420.4h49.7v199h-49.7
	V-1420.4z M2027.1-1336.5v108.2c-18.6,6.3-43.1,10.3-68.8,10.3c-69.1,0-101.6-30.5-101.6-103.1c0-71.9,32.5-103.1,101.6-103.1
	c24.6,0,48,4,65.7,11.1v38.5c-19.4-6.6-41.1-10.6-61.7-10.6c-41.7,0-54.8,16.8-54.8,63.9c0,49.1,13.7,65.4,53.1,65.4
	c8.7,0,17.4-0.6,26-1.7v-44.5h-36.8v-34.5L2027.1-1336.5L2027.1-1336.5z M2189.3-1263.1h-77.9l-14,41.7H2048l71.1-199h63.4l70.8,199
	h-50L2189.3-1263.1z M2150.8-1389l-28.8,89.9h57.4L2150.8-1389z"/>
<g class="st2">
	<path class="st3" d="M389.5-382.5h75.6c42.9,0,68.8,16.9,68.8,56.6c0,21.3-8.8,38.7-30.1,49.6c14.5,22.9,26.2,44.4,36.1,66.8h-54
		c-8.1-19.2-19-40.3-29.4-55.8h-18.7v55.8h-48.3L389.5-382.5L389.5-382.5z M437.8-345.7v44.7h20.8c17.4,0,25.7-6,25.7-22.6
		s-8.3-22.1-25.7-22.1H437.8z"/>
	<path class="st3" d="M570.1-382.5h48.3v173h-48.3V-382.5z"/>
	<path class="st3" d="M654.7-280.2v-31.4c0-50.7,23.6-73.3,75.6-73.3s75.6,22.6,75.6,73.3v31.4c0,50.7-23.6,73-75.6,73
		S654.7-229.5,654.7-280.2z M756.3-280.2v-31.4c0-26.5-6.8-35.1-26-35.1s-26,8.6-26,35.1v31.4c0,26.5,6.8,35.1,26,35.1
		S756.3-253.7,756.3-280.2z"/>
	<path class="st3" d="M836.3-214.5v-41.8c22.3,7.5,42.3,9.9,56.4,9.9c19.7,0,27.3-5.7,27.3-14.3c0-8.3-4.9-12.5-22.1-14.8l-15.6-2.3
		c-29.9-3.9-47.5-18.4-47.5-49.9c0-31.7,24.2-57.1,74.3-57.1c16.9,0,34.3,1.6,55.8,7.3v41c-21-7.3-37.9-9.1-51.2-9.1
		c-19.5,0-27,4.9-27,13.5c0,8.3,4.9,12.2,22.1,14.8l15.1,2.1c29.9,4.4,47.8,19.7,47.8,50.4c0,33.5-24.2,57.7-75.3,57.7
		C880.5-207.2,861-209.3,836.3-214.5z"/>
	<path class="st3" d="M1075.5-209.5v-173h70.4c52.2,0,75.9,21.6,75.9,72.2v28.6c0,50.9-23.6,72.2-75.9,72.2L1075.5-209.5
		L1075.5-209.5z M1123.9-247.7h22.1c19.5,0,26.2-7.3,26.2-34v-28.6c0-26.2-7-33.8-26.2-33.8h-22.1V-247.7z"/>
	<path class="st3" d="M1257.9-209.5v-173h117.7v39h-69.4v28.3h66.2v38.2h-66.2v28.8h70.4v38.7H1257.9z"/>
	<path class="st3" d="M1406.2-214.5v-41.8c22.3,7.5,42.3,9.9,56.4,9.9c19.7,0,27.3-5.7,27.3-14.3c0-8.3-4.9-12.5-22.1-14.8
		l-15.6-2.3c-29.9-3.9-47.5-18.4-47.5-49.9c0-31.7,24.2-57.1,74.3-57.1c16.9,0,34.3,1.6,55.8,7.3v41c-21-7.3-37.9-9.1-51.2-9.1
		c-19.5,0-27,4.9-27,13.5c0,8.3,4.9,12.2,22.1,14.8l15.1,2.1c29.9,4.4,47.8,19.7,47.8,50.4c0,33.5-24.2,57.7-75.3,57.7
		C1450.4-207.2,1430.9-209.3,1406.2-214.5z"/>
	<path class="st3" d="M1574.3-382.5h74.6c43.6,0,69.4,19.2,69.4,59.7c0,40.8-25.7,60-69.4,60h-26.2v53.3h-48.3L1574.3-382.5
		L1574.3-382.5z M1668.3-322.8c0-17.7-7.8-22.9-25.7-22.9h-20v46.2h20C1660.5-299.4,1668.3-305.1,1668.3-322.8z"/>
	<path class="st3" d="M1747.3-280.2v-31.4c0-50.7,23.6-73.3,75.6-73.3s75.6,22.6,75.6,73.3v31.4c0,50.7-23.6,73-75.6,73
		S1747.3-229.5,1747.3-280.2z M1848.8-280.2v-31.4c0-26.5-6.8-35.1-26-35.1s-26,8.6-26,35.1v31.4c0,26.5,6.8,35.1,26,35.1
		S1848.8-253.7,1848.8-280.2z"/>
	<path class="st3" d="M1922.1-382.5h141.1v40H2017v133h-48.6v-133h-46.2v-40H1922.1z"/>
	<path class="st3" d="M2087-280.2v-31.4c0-50.7,23.6-73.3,75.6-73.3s75.6,22.6,75.6,73.3v31.4c0,50.7-23.6,73-75.6,73
		S2087-229.5,2087-280.2z M2188.6-280.2v-31.4c0-26.5-6.8-35.1-26-35.1s-26,8.6-26,35.1v31.4c0,26.5,6.8,35.1,26,35.1
		S2188.6-253.7,2188.6-280.2z"/>
</g>
<g class="st2">
	<polyline class="st4" points="56.7,-197.7 56.7,-402.7 220.2,-402.7 167.2,-390.3 157.3,-388.2 147.5,-385.7 137.9,-382.6 
		128.4,-379.1 119.2,-375.1 110.1,-370.6 101.2,-365.7 96.6,-362.6 92.1,-359.1 87.9,-355.4 83.9,-351.5 81.2,-348.4 78.8,-345 
		76.7,-341.5 75.3,-338.5 74.3,-335.4 73.9,-332.1 73.9,-328.8 74.4,-325.5 75.4,-322.4 76.9,-319.4 79.2,-316.4 81.9,-313.6 
		84.9,-311.2 89.9,-307.7 95.1,-304.5 107.8,-296.6 118,-290.1 128.6,-284.1 139.5,-278.5 150.5,-273.5 156.8,-271 162.9,-268.1 
		168.8,-264.8 171.9,-262.7 174.8,-260.2 177.4,-257.4 179.6,-254.3 181.4,-251 182.6,-248.1 183.3,-245 183.5,-241.8 183.3,-238.6 
		182.7,-235.5 181.7,-232.9 180.4,-230.5 178.8,-228.4 177,-226.4 173.5,-223.7 169.7,-221.4 165.7,-219.6 152.8,-215.1 
		139.6,-211.1 126.4,-207.6 109.7,-202.8 93,-197.7 56.7,-197.7 	"/>
	<polyline class="st4" points="154.9,-355.5 156.9,-359.6 159.3,-363.6 162.1,-367.2 165.3,-370.6 168.8,-373.6 172.5,-376.2 
		179,-380.4 185.8,-384.2 192.7,-387.6 199.9,-390.6 207.1,-393.2 215.9,-395.9 224.7,-398.1 233.6,-400 242.6,-401.5 251.6,-402.7 
		311.8,-402.7 311.8,-197.7 287.2,-197.7 290.7,-202.4 293.7,-207.4 296.2,-212.6 298.2,-218.1 299.7,-223.7 300.6,-229.4 
		301.1,-235.2 301,-241 300.3,-246.7 299.1,-252.4 297.4,-257.9 295.2,-263.3 292.4,-268.4 289.3,-273.3 285.6,-277.8 281.6,-282 
		277.2,-285.8 272.5,-289.1 267.4,-292 262.2,-294.4 256.7,-296.3 251.1,-297.7 235.6,-301.5 220.2,-305.7 204.9,-310 194.5,-313.2 
		184.1,-316.5 179,-318.3 174.1,-320.3 169.3,-322.6 165.9,-324.5 162.8,-326.9 160.1,-329.7 157.8,-332.9 156,-336.4 154.7,-340.1 
		153.9,-343.9 153.7,-347.8 154.1,-351.7 154.9,-355.5 	"/>
</g>
<g class="st2">
	<polyline class="st5" points="662.5,-283.2 662.5,-545.9 872.1,-545.9 804.2,-530.1 791.5,-527.4 778.9,-524.2 766.6,-520.2 
		754.4,-515.7 742.6,-510.6 731,-504.8 719.6,-498.5 713.7,-494.5 707.9,-490.1 702.5,-485.3 697.4,-480.3 693.9,-476.3 690.9,-472 
		688.2,-467.5 686.4,-463.7 685.1,-459.7 684.6,-455.5 684.6,-451.2 685.2,-447 686.5,-443 688.4,-439.2 691.4,-435.3 694.8,-431.7 
		698.7,-428.5 705.1,-424.2 711.8,-420.1 728,-410 741.1,-401.6 754.7,-393.9 768.7,-386.8 782.8,-380.3 790.8,-377.1 798.7,-373.4 
		806.2,-369.2 810.2,-366.5 813.9,-363.3 817.2,-359.7 820.1,-355.7 822.4,-351.5 823.9,-347.8 824.8,-343.7 825.1,-339.7 
		824.8,-335.6 824,-331.6 822.8,-328.3 821.1,-325.2 819,-322.4 816.7,-320 812.2,-316.4 807.4,-313.6 802.2,-311.3 785.7,-305.5 
		768.8,-300.4 751.9,-295.7 730.5,-289.7 709.1,-283.2 662.5,-283.2 	"/>
	<polyline class="st5" points="788.4,-485.4 791,-490.7 794,-495.8 797.6,-500.4 801.7,-504.8 806.2,-508.6 811,-512 819.3,-517.4 
		828,-522.2 836.9,-526.6 846.1,-530.4 855.3,-533.8 866.6,-537.1 877.9,-540.1 889.3,-542.5 900.8,-544.4 912.4,-545.9 
		989.5,-545.9 989.5,-283.2 958,-283.2 962.5,-289.2 966.3,-295.6 969.5,-302.3 972.1,-309.2 974,-316.5 975.2,-323.8 975.8,-331.2 
		975.7,-338.7 974.8,-346 973.2,-353.3 971.1,-360.3 968.2,-367.3 964.6,-373.8 960.7,-380.1 955.9,-385.9 950.8,-391.2 
		945.2,-396.1 939.1,-400.3 932.6,-404.1 925.9,-407.1 918.9,-409.6 911.7,-411.4 891.8,-416.2 872.1,-421.5 852.5,-427.1 
		839.2,-431.2 825.8,-435.5 819.3,-437.8 813,-440.3 806.9,-443.3 802.5,-445.7 798.5,-448.8 795.1,-452.4 792.1,-456.5 789.8,-461 
		788.1,-465.6 787.1,-470.6 786.9,-475.6 787.4,-480.6 788.4,-485.4 	"/>
</g>
<g class="st2">
	<path class="st3" d="M538.9,765.6c0,0.6-0.8,1-2.5,1.3c-3.2,0.5-11.3,0.8-24.2,0.8c-11.1,0-18.6-0.3-22.6-0.8
		c-1.9-0.3-2.9-0.5-3.2-0.6c-0.5-0.3-1.1-1.1-1.8-2.5c-1.3-3.3-3.1-8.2-5.6-14.7c-3.3-8.5-8.5-20.9-15.5-37.4
		c-1.5-3.3-5-5.1-10.5-5.5c2.5,0.2-1.8,0.3-13.1,0.3c-1.3,0-1.9,2.2-1.9,6.5c0,5.8,0.5,14.3,1.6,25.7s1.6,20,1.6,25.7
		c0,1.4-0.4,2.3-1.1,2.5c-1.2,0.1-2.4,0.2-3.6,0.3c-5,0.3-12.8,0.5-23.3,0.5c-12.1,0-19.4-0.3-21.8-0.8c-2.5-0.5-3.7-1.8-3.7-3.9
		c0-9.3,0.4-23.3,1.3-42.1s1.3-32.9,1.3-42.2c0-35.8-0.8-63.7-2.4-83.7l-0.1-1.8c-0.1-1.4,1.2-2.4,4-2.9c2.7-0.5,15.7-1,38.7-1.5
		c15.6-0.3,28.1-0.5,37.4-0.5c19.3,0,35,4.4,47.2,13.1c13.8,9.8,20.7,24,20.7,42.5c0,12.3-1.8,22.2-5.3,29.6
		c-3.6,7.4-10.1,14.5-19.7,21.4c-1.9,1.4-2.9,2.6-2.9,3.8c0-0.1,5.2,10.5,15.5,31.8C533.7,751.7,538.9,763.4,538.9,765.6z
		 M485.6,651.8c0-10.3-3.4-17.5-10.1-21.4c-5.2-3-13.4-4.6-24.6-4.6c-8,0-12.3,1.2-12.8,3.7c-0.5,2.9-0.8,11.2-0.8,24.9
		c0,1.9,0,4.8,0.1,8.6s0.1,6.6,0.1,8.5c0,0.4,1.4,0.8,4.1,1.3c5.2,0.8,10.6,1.1,16.2,1.1C476.3,673.9,485.6,666.6,485.6,651.8z"/>
	<path class="st3" d="M617.7,673.2c0,10,0.3,25,0.8,45s0.8,35,0.8,45c0,1.7-0.4,2.7-1.1,3.2c-0.2,0.1-1.3,0.3-3.3,0.5
		c-5.5,0.7-12.9,1-22.1,1c-12.3,0-20.2-0.3-23.6-1c-2.5-0.5-3.7-1.8-3.7-3.9c0,1.4,0.4-6.1,1.1-22.3c1.5-34.2,2.3-56.7,2.3-67.5
		c0-9-0.3-22.6-0.9-40.7c-0.6-18.1-0.9-31.7-0.9-40.7c0-1.9,1-2.8,2.9-2.8c2.6,0,6.6,0.1,11.9,0.4c5.3,0.3,9.2,0.4,11.9,0.4
		c2.6,0,6.5-0.1,11.6-0.4c5.1-0.3,9-0.4,11.6-0.4c2.5,0,3.7,0.9,3.7,2.8c0,9-0.5,22.6-1.5,40.7C618.2,650.5,617.7,664.1,617.7,673.2
		z"/>
	<path class="st3" d="M832.7,678.1c0,26.4-8.4,48.5-25.2,66.3c-17.2,18.1-38.9,27.1-65.2,27.1c-26.1,0-47.8-9.1-65.1-27.4
		c-16.9-17.8-25.4-39.9-25.4-66.1c0-26.3,8.5-48.4,25.4-66.3c17.2-18.3,38.9-27.5,65.1-27.5c26,0,47.6,9.2,64.9,27.5
		C824.2,629.9,832.7,652,832.7,678.1z M784.7,677.8c0-12.7-3.8-23.5-11.5-32.3c-8-9.3-18.3-14-30.8-14c-11.9,0-22,4.8-30.3,14.5
		c-8,9.3-12,20-12,32.1c0,12.9,3.8,23.7,11.3,32.3c7.9,9,18.3,13.6,31.1,13.6c11.9,0,22.1-4.8,30.4-14.3
		C780.7,700.5,784.7,689.9,784.7,677.8z"/>
	<path class="st3" d="M951.1,708.5c0,17.2-7.2,31.9-21.7,44.1c-12.7,10.8-28.1,17.7-46.3,20.7c-0.7,0.1-1.2,0.1-1.6,0.1
		c-1.9,0-6.3-5.9-12.9-17.8c-6.7-11.9-10-19.1-10-21.8c0-0.9,0.6-1.5,1.9-1.8c12.3-2.8,20.4-5.2,24.4-7.1
		c8.8-4.4,13.2-10.9,13.2-19.5c0-5.5-2.9-11.6-8.6-18.4c-10-11.5-15.4-17.9-16.2-19.2c-5.8-8.8-8.8-18.5-8.8-29.2
		c0-15.5,7.1-28.3,21.4-38.6c11.7-8.5,26-14,43-16.5c0.9-0.1,1.6-0.1,2.2-0.1c1.3,0,2.3,1,3,3c2.2,6.2,7.3,17.3,15.3,33.5
		c0.3,0.5,0.4,0.9,0.4,1.3c0,1.4-0.8,2.2-2.3,2.2c-0.7,0-1.8-0.1-3.4-0.4c-1.6-0.3-2.8-0.4-3.7-0.4c-6.1,0-11.4,1.4-16,4.2
		c-5.5,3.2-8.2,7.7-8.2,13.4c0,5.2,3,11.5,9.1,19c10.7,13.5,16.4,20.6,16.9,21.3C948.1,690.1,951.1,699.3,951.1,708.5z"/>
</g>
<g class="st2">
	<polyline class="st4" points="56.7,778.7 56.7,573.8 220.2,573.8 167.2,586.1 157.3,588.2 147.5,590.8 137.9,593.8 128.4,597.4 
		119.2,601.4 110.1,605.8 101.2,610.7 96.6,613.9 92.1,617.3 87.9,621 83.9,625 81.2,628.1 78.8,631.4 76.7,634.9 75.3,637.9 
		74.3,641 73.9,644.3 73.9,647.6 74.4,650.9 75.4,654 76.9,657 79.2,660.1 81.9,662.8 84.9,665.3 89.9,668.7 95.1,671.9 
		107.8,679.9 118,686.3 128.6,692.4 139.5,697.9 150.5,702.9 156.8,705.5 162.9,708.4 168.8,711.6 171.9,713.7 174.8,716.2 
		177.4,719 179.6,722.1 181.4,725.4 182.6,728.4 183.3,731.5 183.5,734.7 183.3,737.8 182.7,741 181.7,743.5 180.4,745.9 
		178.8,748.1 177,750 173.5,752.8 169.7,755.1 165.7,756.9 152.8,761.4 139.6,765.4 126.4,768.9 109.7,773.7 93,778.7 56.7,778.7 	
		"/>
	<polyline class="st4" points="154.9,620.9 156.9,616.8 159.3,612.9 162.1,609.2 165.3,605.8 168.8,602.8 172.5,600.2 179,596 
		185.8,592.2 192.7,588.8 199.9,585.8 207.1,583.2 215.9,580.6 224.7,578.3 233.6,576.4 242.6,574.9 251.6,573.8 311.8,573.8 
		311.8,778.7 287.2,778.7 290.7,774 293.7,769 296.2,763.8 298.2,758.4 299.7,752.8 300.6,747 301.1,741.3 301,735.5 300.3,729.7 
		299.1,724 297.4,718.5 295.2,713.1 292.4,708 289.3,703.1 285.6,698.6 281.6,694.4 277.2,690.7 272.5,687.3 267.4,684.4 262.2,682 
		256.7,680.1 251.1,678.7 235.6,674.9 220.2,670.8 204.9,666.4 194.5,663.2 184.1,659.9 179,658.2 174.1,656.1 169.3,653.9 
		165.9,651.9 162.8,649.5 160.1,646.7 157.8,643.5 156,640.1 154.7,636.4 153.9,632.5 153.7,628.6 154.1,624.7 154.9,620.9 	"/>
</g>
<g class="st2">
	<path class="st3" d="M538.9-1370.2c0,0.6-0.8,1-2.5,1.3c-3.2,0.5-11.3,0.8-24.2,0.8c-11.1,0-18.6-0.3-22.6-0.8
		c-1.9-0.3-2.9-0.5-3.2-0.6c-0.5-0.3-1.1-1.1-1.8-2.5c-1.3-3.3-3.1-8.2-5.6-14.7c-3.3-8.5-8.5-20.9-15.5-37.4
		c-1.5-3.3-5-5.1-10.5-5.5c2.5,0.2-1.8,0.3-13.1,0.3c-1.3,0-1.9,2.2-1.9,6.5c0,5.8,0.5,14.3,1.6,25.7c1.1,11.4,1.6,20,1.6,25.7
		c0,1.4-0.4,2.3-1.1,2.5c-1.2,0.1-2.4,0.2-3.6,0.3c-5,0.3-12.8,0.5-23.3,0.5c-12.1,0-19.4-0.3-21.8-0.8c-2.5-0.5-3.7-1.8-3.7-3.9
		c0-9.3,0.4-23.3,1.3-42.1c0.9-18.8,1.3-32.9,1.3-42.2c0-35.8-0.8-63.7-2.4-83.7l-0.1-1.8c-0.1-1.4,1.2-2.4,4-2.9
		c2.7-0.5,15.7-1,38.7-1.5c15.6-0.3,28.1-0.5,37.4-0.5c19.3,0,35,4.4,47.2,13.1c13.8,9.8,20.7,24,20.7,42.5
		c0,12.3-1.8,22.2-5.3,29.6c-3.6,7.4-10.1,14.5-19.7,21.4c-1.9,1.4-2.9,2.6-2.9,3.8c0-0.1,5.2,10.5,15.5,31.8
		C533.7-1384.1,538.9-1372.3,538.9-1370.2z M485.6-1483.9c0-10.3-3.4-17.5-10.1-21.4c-5.2-3-13.4-4.6-24.6-4.6
		c-8,0-12.3,1.2-12.8,3.7c-0.5,2.9-0.8,11.2-0.8,24.9c0,1.9,0,4.8,0.1,8.6c0.1,3.8,0.1,6.6,0.1,8.5c0,0.4,1.4,0.8,4.1,1.3
		c5.2,0.8,10.6,1.1,16.2,1.1C476.3-1461.9,485.6-1469.2,485.6-1483.9z"/>
	<path class="st3" d="M617.7-1462.6c0,10,0.3,25,0.8,45s0.8,35.1,0.8,45c0,1.7-0.4,2.7-1.1,3.2c-0.2,0.1-1.3,0.3-3.3,0.5
		c-5.5,0.7-12.9,1-22.1,1c-12.3,0-20.2-0.3-23.6-1c-2.5-0.5-3.7-1.8-3.7-3.9c0,1.4,0.4-6.1,1.1-22.3c1.5-34.2,2.3-56.7,2.3-67.5
		c0-9-0.3-22.6-0.9-40.7c-0.6-18.1-0.9-31.7-0.9-40.7c0-1.9,1-2.8,2.9-2.8c2.6,0,6.6,0.1,11.9,0.4c5.3,0.3,9.2,0.4,11.9,0.4
		c2.6,0,6.5-0.1,11.6-0.4s9-0.4,11.6-0.4c2.5,0,3.7,0.9,3.7,2.8c0,9-0.5,22.6-1.5,40.7C618.2-1485.2,617.7-1471.7,617.7-1462.6z"/>
	<path class="st3" d="M832.7-1457.7c0,26.4-8.4,48.5-25.2,66.3c-17.2,18.1-38.9,27.1-65.2,27.1c-26.1,0-47.8-9.1-65.1-27.4
		c-16.9-17.8-25.4-39.9-25.4-66.1c0-26.3,8.5-48.4,25.4-66.3c17.2-18.3,38.9-27.5,65.1-27.5c26,0,47.6,9.2,64.9,27.5
		C824.2-1505.9,832.7-1483.8,832.7-1457.7z M784.7-1457.9c0-12.7-3.8-23.5-11.5-32.3c-8-9.3-18.3-14-30.8-14
		c-11.9,0-22,4.8-30.3,14.5c-8,9.3-12,20-12,32.1c0,12.9,3.8,23.7,11.3,32.3c7.9,9,18.3,13.6,31.1,13.6c11.9,0,22.1-4.8,30.4-14.3
		C780.7-1435.2,784.7-1445.8,784.7-1457.9z"/>
	<path class="st3" d="M951.1-1427.2c0,17.2-7.2,31.9-21.7,44.1c-12.7,10.8-28.1,17.7-46.3,20.7c-0.7,0.1-1.2,0.1-1.6,0.1
		c-1.9,0-6.3-5.9-12.9-17.8c-6.7-11.9-10-19.1-10-21.8c0-0.9,0.6-1.5,1.9-1.8c12.3-2.8,20.4-5.2,24.4-7.1
		c8.8-4.4,13.2-10.9,13.2-19.5c0-5.5-2.9-11.6-8.6-18.4c-10-11.5-15.4-17.9-16.2-19.2c-5.8-8.8-8.8-18.5-8.8-29.2
		c0-15.5,7.1-28.3,21.4-38.6c11.7-8.5,26-14,43-16.5c0.9-0.1,1.6-0.1,2.2-0.1c1.3,0,2.3,1,3,3c2.2,6.2,7.3,17.3,15.3,33.5
		c0.3,0.5,0.4,0.9,0.4,1.3c0,1.4-0.8,2.2-2.3,2.2c-0.7,0-1.8-0.1-3.4-0.4c-1.6-0.3-2.8-0.4-3.7-0.4c-6.1,0-11.4,1.4-16,4.2
		c-5.5,3.2-8.2,7.7-8.2,13.4c0,5.2,3,11.5,9.1,19c10.7,13.5,16.4,20.6,16.9,21.3C948.1-1445.7,951.1-1436.4,951.1-1427.2z"/>
</g>
<g class="st2">
	<polyline class="st4" points="393.2,-1605.3 393.2,-2043.5 742.9,-2043.5 629.5,-2017.2 608.4,-2012.7 587.5,-2007.2 
		566.9,-2000.6 546.6,-1993.1 526.8,-1984.5 507.4,-1975 488.5,-1964.5 478.5,-1957.8 469,-1950.4 460,-1942.5 451.5,-1934 
		445.7,-1927.4 440.5,-1920.3 435.9,-1912.8 432.9,-1906.4 430.9,-1899.6 429.9,-1892.6 430,-1885.6 431.1,-1878.6 433.3,-1871.9 
		436.4,-1865.5 441.4,-1859 447.2,-1853.1 453.6,-1847.8 464.3,-1840.4 475.3,-1833.6 502.4,-1816.6 524.4,-1802.8 547,-1789.9 
		570.2,-1778.1 593.9,-1767.3 607.3,-1761.9 620.3,-1755.7 632.9,-1748.7 639.7,-1744.2 645.8,-1738.9 651.3,-1732.9 656,-1726.4 
		660,-1719.3 662.4,-1712.9 663.9,-1706.3 664.5,-1699.5 664,-1692.6 662.7,-1686 660.6,-1680.5 657.8,-1675.5 654.4,-1670.8 
		650.4,-1666.5 643,-1660.7 635,-1655.8 626.4,-1652 598.7,-1642.3 570.6,-1633.8 542.2,-1626.3 506.5,-1616 470.9,-1605.3 
		393.2,-1605.3 	"/>
	<polyline class="st4" points="603.3,-1942.7 607.6,-1951.5 612.7,-1959.9 618.7,-1967.7 625.4,-1974.9 632.9,-1981.4 640.9,-1987 
		654.9,-1996 669.3,-2004.1 684.1,-2011.4 699.4,-2017.8 715,-2023.4 733.6,-2029 752.5,-2033.8 771.5,-2037.9 790.8,-2041.1 
		810.1,-2043.5 938.8,-2043.5 938.8,-1605.3 886.2,-1605.3 893.6,-1615.3 900,-1625.9 905.4,-1637.1 909.7,-1648.7 912.9,-1660.7 
		914.9,-1673 915.8,-1685.3 915.6,-1697.7 914.2,-1710.1 911.6,-1722.2 908,-1734 903.2,-1745.5 897.4,-1756.5 890.6,-1766.8 
		882.8,-1776.5 874.2,-1785.4 864.8,-1793.5 854.7,-1800.7 843.9,-1806.9 832.6,-1812 820.9,-1816.1 808.9,-1819.1 775.8,-1827.3 
		742.9,-1836.1 710.2,-1845.5 687.9,-1852.2 665.7,-1859.3 654.9,-1863 644.3,-1867.3 633.9,-1872.3 626.7,-1876.4 620.1,-1881.5 
		614.3,-1887.6 609.4,-1894.4 605.5,-1901.8 602.8,-1909.6 601.1,-1917.8 600.7,-1926.2 601.4,-1934.5 603.3,-1942.7 	"/>
</g>
<path class="st2" d="M655.5-284h37.4v45h-37.3l0.1,61.3c0,2.2,1.8,4,4,4H693v45h-33.5c-27.5,0-49.8-22.5-49.8-49.9v-134.9h45.9
	L655.5-284L655.5-284z M515.7-292c-46,0-83.2,37.2-83.2,83.2s37.2,83.2,83.2,83.2s83.2-37.2,83.2-83.2S561.6-292,515.7-292
	L515.7-292z M515.7-170c-20.6,0-37.4-18.1-37.4-38.7s16.7-38.7,37.4-38.7c20.7,0,37.4,18.1,37.4,38.7S536.3-170,515.7-170L515.7-170
	z M779.9-292c-46,0-83.2,37.2-83.2,83.2s37.2,83.2,83.2,83.2s83.2-37.2,83.2-83.2S825.9-292,779.9-292z M779.9-170
	c-20.7,0-37.4-18.1-37.4-38.7s16.7-38.7,37.4-38.7s37.4,18.1,37.4,38.7S800.6-170,779.9-170z M397.7-296.1
	c-17.5-9.1-38.8-5.6-52.3,8.4l-89.1,98.9c-1.8,1.9-5,0.6-5-2v-65.7c0-24.6-19.9-44.6-44.5-44.6c-12.4,0-25,4.9-32.5,13.3L31-128.7
	h66l99.7-110.8c1.8-1.9,5-0.6,5,2v66.7c0,18.6,11.6,35.1,29.2,41.4c16.6,5.9,36.2,0.8,48.1-12l88.2-97.8c1.8-1.9,5-0.6,5,2v108.5
	h49.4v-127.9C421.7-273.1,412.6-288.4,397.7-296.1L397.7-296.1L397.7-296.1z M1145.6-301.1H961.8c-47.5,0-86.2,38.7-86.2,86.2
	s38.7,86.2,86.2,86.2H1106v-51.8h42.1c32.1-1.3,57.8-27.9,57.8-60.3S1178.8-301.1,1145.6-301.1L1145.6-301.1z M1036.9-249.3h-75
	c-19,0-34.4,15.4-34.4,34.4s15.5,34.4,34.4,34.4h40.2v-17.1h-40.2c-9.6,0-17.4-7.8-17.4-17.4c0-9.6,7.8-17.4,17.4-17.4h75v86.5h-75
	c-38.1,0-69.2-31-69.2-69.2s31-69.2,69.1-69.2h75L1036.9-249.3L1036.9-249.3z M1145.6-197.5h-56.7v51.8H1054v-86.5h91.6
	c4.7,0,8.5-3.8,8.5-8.5s-3.8-8.5-8.5-8.5H1054V-284h91.6c23.8,0,43.1,19.5,43.1,43.2S1169.3-197.5,1145.6-197.5L1145.6-197.5z
	 M1127.2-128.7h3.2v-14.1h5.4v-3h-13.9v3h5.4L1127.2-128.7L1127.2-128.7z M1138.9-128.7h3.1v-11.9l3.9,6.5h2.6l3.9-6.7v12h3.1v-17.1
	h-3.3l-5,8.4l-5-8.4h-3.3L1138.9-128.7L1138.9-128.7L1138.9-128.7z"/>
<path class="st6" d="M310.2,186.8c-0.3,4.3-0.4,8.6-0.9,12.8c-1.1,9.2-2.9,18.2-5.7,27c-4.8,15.2-11.9,29.1-21.5,41.7
	c-7.6,10.1-16.5,18.7-27,25.8c-11.9,8.1-24.9,13.3-39.1,15.5c-20.9,3.3-40.5-0.6-59-10.9c-10.1-5.6-18.9-12.9-26.6-21.4
	c-2.9-3.2-5.6-6.7-8.4-10.1c0.8-0.2,1.6-0.4,2.4-0.5c1.6,1.8,3.3,3.6,4.9,5.4c7.4,8.2,15.8,15.2,25.4,20.6c10.6,6,22,9.8,34.2,11.1
	c26.9,2.9,50.2-5.2,70.7-22.4c13.7-11.5,23.7-25.9,31.4-42c5.7-12,9.3-24.7,11.4-37.9c1.7-10.7,2.6-21.5,1.9-32.3
	c-0.1-1.8-0.2-3.6-0.3-5.4c1.6-0.4,1.7-0.6,1.5-1.8c-0.1-0.5-0.3-0.9-0.3-1.4c-0.1-1.1-0.7-1.4-1.6-1.4c-0.6-4-1.3-8-1.9-12
	c1.3-0.5,1.6-1,1.4-2.2c-0.2-1.3-1.2-1.1-2.1-1.1c-1.1-4.2-2.2-8.4-3.4-12.6c-0.1-0.5-0.2-1.1-0.4-1.6c1.2-1,2.7-1.4,4.2-1.7
	c1.7,4,3,8.2,3.8,12.5c-0.3,0.2-0.8,0.4-0.8,0.7c0,0.8,0.6,1,1.3,1c0.1,0.3,0.2,0.6,0.3,0.9c-1.1,1.2-1.1,1.5,0.5,2.1
	c0.7,3.4,1.4,6.7,2.1,10.1c0.2,1.1,0.3,2.2,0.4,3.3c-0.8,0.5-1.3,1.3-1,2.2c0.1,0.4,0.9,0.5,1.4,0.7c1.2,7.7,1.3,15.5,1.1,23.3
	c0,0.1-0.1,0.3-0.1,0.4c-0.3,0.3-0.6,0.5-0.9,0.8C309.7,186.2,309.9,186.5,310.2,186.8z"/>
<path class="st7" d="M284.1,225.4c-0.6,1.5-1,3-1.7,4.5c-1.4,3-2.8,6-4.5,8.8c-6.7,11.1-15.5,20.2-26.8,26.7c-1.6,0.9-3.4,1.7-5,2.5
	c-0.5,0.2-1.1,0.5-1.2,1c-0.8,2.5-1.4,5-2.1,7.5c-0.5,0.1-1,0.3-1.5,0.4c0-0.3,0-0.5-0.1-0.8c0.5-0.7,0.6-1.4-0.1-2.1
	c-0.1-0.4-0.1-0.8-0.2-1.3c0.2-1.4,0.9-2.9-0.6-4.1l-0.2,0l-0.2,0c-0.3,0.2-0.5,0.3-0.8,0.5c0,0,0,0,0,0c-0.2,0.1-0.3,0.2-0.5,0.4
	c-4.9,3.1-10.2,5.2-15.8,6.6c-2.5,0.6-5.1,1-7.7,1.4c-0.3,0-0.6,0.1-0.9,0.1c-0.1-0.2-0.3-0.6-0.3-0.7c0.4-0.3,0.9-0.7,1.4-0.8
	c20.2-5.9,34.4-19,44.4-37.1c0.1-0.2,0.1-0.5,0.2-0.8c0,0,0,0,0,0c0.7-1,1.6-2,2.2-3.1c2.4-4.7,4.4-9.5,6.1-14.5
	c0.1-0.4,0.3-0.7,0.5-1.1c0.1-0.4,0.3-0.9,0.4-1.3c-0.1-0.1,0-0.2,0.1-0.3c0.3-0.5,0.6-1,0.8-1.5c0.2-0.7,0.7-1,1.4-1
	c0.7,0,1.2,0.2,1.4,0.9c0.1,0.3,0.1,0.7,0.2,1c-0.2,0.9-0.4,1.8-0.6,2.6c-0.8,2.5-1.6,5-2.5,7.5c-1.8,3.8-3.6,7.5-5.4,11.3
	c-0.1,0.1,0,0.3,0,0.4c-0.1,0.1-0.1,0.3-0.2,0.4c0.1-0.1,0.2-0.2,0.3-0.3c2.4-3.4,4.2-7.1,5.8-10.9c0-0.1,0-0.3,0.1-0.4
	c3.1-5.5,5.1-11.4,6.6-17.5c0.8-3.6,1.8-7.3,2.4-10.9c1.3-7.3,1.9-14.7,1.7-22.2c-0.6-23.3-7.5-44.5-21.6-63.1
	c-3.3-4.3-7.3-8-10.9-12c-0.5-0.5-0.9-1-1.6-1.7c3.2,0.3,5.6,1.3,7.7,3.3c5.2,5.2,10,10.8,13.9,17.1c8.3,13.3,13.3,27.9,15.5,43.4
	c1.4,10.3,1.4,20.6-0.1,30.9c-0.1,0.8-0.1,1.5-0.2,2.3c-0.2,0.9-0.4,1.7-0.6,2.6c-1.3,5.2-2.6,10.5-3.9,15.7
	c-1.8,4.2-3.6,8.4-5.3,12.6c-0.6,1.3-1.3,2.7-1.9,4c0,0.2,0,0.3-0.1,0.5c0.1-0.1,0.2-0.2,0.3-0.3c0.8-1.4,1.6-2.8,2.4-4.3
	c1.1-2.2,2.3-4.4,3.3-6.7c0.8-1.9,1.4-3.9,2.1-5.8c0.2-0.6,0.3-1.3,0.6-1.9c2.5-5.1,3.6-10.5,4.8-16c0.7-3.7,1.6-7.5,2-11.2
	c0.8-7.2,1.1-14.4,0.6-21.6c-0.9-12.9-3.7-25.3-8.5-37.3c-1.4-3.5-3-6.8-4.5-10.3c1-0.7,1.9-1.4,2.9-2.1c2.8,4.9,5,10,7,15.3
	c5.7,15.8,8.3,32.2,7.5,49c-0.5,11.4-2.7,22.5-6.4,33.4c-0.2,0.7-0.4,1.3-0.6,2c-0.3,0.6-0.6,1.3-0.8,1.9
	c-5.1,13.7-12.8,25.7-23.3,35.9c-0.3,0.3-0.6,0.6-0.9,0.9c-0.2,0.3-0.2,0.6-0.3,1.2c0.6-0.3,0.9-0.4,1.2-0.7
	c2.5-2.5,5.1-4.9,7.5-7.5c5.9-6.5,10.4-14.1,14.4-21.9C283.4,224.9,283.8,225.1,284.1,225.4z M262.4,242.3c0-0.1,0.1-0.3,0.1-0.4
	c-0.1,0.1-0.2,0.2-0.3,0.3c0,0.1-0.1,0.3-0.1,0.4C262.2,242.5,262.3,242.4,262.4,242.3z M263.2,241c0.1-0.2,0.2-0.5,0.3-0.7
	c0.1-0.2,0.1-0.3,0.2-0.5c-0.1,0.1-0.3,0.2-0.4,0.3c-0.1,0.2-0.2,0.5-0.3,0.7c0,0.2-0.1,0.3-0.1,0.5
	C263,241.2,263.1,241.1,263.2,241z M251.8,260.5c-0.2,0.1-0.3,0.1-0.5,0.2c0.1,0.1,0.2,0.2,0.2,0.2
	C251.6,260.8,251.8,260.7,251.8,260.5c0.3,0,0.5-0.1,0.7-0.2c3.1-1.4,5.3-3.2,5.8-4.9c-2.3,1.5-4.2,3.1-6,4.6
	C252.1,260.2,251.9,260.3,251.8,260.5z M269.8,235.5c-0.1,0.2-0.2,0.3-0.3,0.5c0,0,0.1,0.1,0.1,0.1
	C269.7,235.9,269.8,235.8,269.8,235.5c0.1,0,0.2-0.1,0.2-0.2C269.9,235.4,269.8,235.5,269.8,235.5z M271,233.4
	c-0.2,0.3-0.3,0.6-0.5,0.9c0,0.1-0.1,0.2-0.1,0.2c0.1,0,0.2-0.1,0.2-0.1c0.2-0.3,0.3-0.6,0.5-0.9c0-0.1,0.1-0.3,0.1-0.4
	C271.1,233.2,271.1,233.3,271,233.4z M261,244.3c0.2-0.3,0.3-0.5,0.5-0.8c0-0.1,0.1-0.3,0.1-0.4c-0.1,0.1-0.2,0.2-0.2,0.3
	C261.3,243.7,261.2,244,261,244.3c-0.1,0-0.1,0-0.2,0.1c0,0,0,0.1,0,0.1C260.9,244.4,261,244.4,261,244.3z"/>
<path class="st8" d="M242,172.8c-0.7,1.1-1.4,2.3-2.2,3.4c-5.3,7.9-10.6,15.7-15.9,23.6c-0.4,0.6-0.7,1.1-1.1,1.7
	c1.7,1.3,3.2,2.5,5,3.9c2-1.1,4.1-2.1,6.1-3.3c4.8-2.7,9.6-5.4,14.5-8.1c0.5-0.3,1.1-0.5,1.7-0.8c0.2,0.2,0.4,0.3,0.6,0.5
	c-6.4,5.2-12.9,10.4-19.3,15.7c0.4,0.7,0.7,1.3,1,1.9c-0.9,0.3-1.8,0.6-2.7,0.9c-1.9-2-3.6-4.2-5.8-5.9c-9.2-7.4-19.8-10.2-31.5-8.8
	c-11,1.3-19.9,6.4-26.6,15.2c-4.6,6.1-7.1,13-6.8,20.7c-0.9-0.6-1.8-1.1-2.7-1.7c-0.6,0.3-1,0.6-1.4,0.8c0.2-1.1,0.3-2.3,0.5-3.4
	c0.2-1,0.5-2,0.7-3c0.1,0.7,0.1,1.3,0.2,2.1c0.7,0.2,1.4,0.4,2.1,0.6c0.4-1.7,0.7-3.2,1-4.8c0.2-1.4-0.8-2-2.4-1.5
	c0.7-2.1,1.5-4.3,2.3-6.6c-1-0.6-2.1-1.3-3.1-2.1c-3.1-2.1-6.2-4.2-9.2-6.2c0.2-0.2,0.4-0.4,0.6-0.6c0.4,0.2,0.7,0.4,1.1,0.6
	c4.1,1.6,8.3,3.3,12.5,4.9c2.6-3.1,5.4-6.2,8.3-9.6c-0.5-0.6-1.1-1.3-1.8-2.1c-5.3-5.7-10.6-11.5-16-17.2c-0.2-0.2-0.3-0.4-0.5-0.7
	c0-0.4,0.1-0.8,0.1-1.3c0.8,0.7,1.5,1.4,2.3,2.1c5.5,4.7,11,9.3,16.4,14c1.2,1,2.3,2,3.4,3c2.2-1.2,4.3-2.3,6.5-3.5
	c-1.1-3.1-2.1-6.2-3.2-9.2c-2.6-7.2-5.3-14.4-8-21.6c-0.2-0.6-0.4-1.3-0.6-2c0.2-0.2,0.5-0.5,0.7-0.7c2.3,4.8,4.7,9.6,7,14.4
	c2.4,4.9,4.7,9.9,7,14.9c0.4,0.9,1,1.8,1.4,2.8c2.3-0.5,4.5-1,7-1.5c0.6-9.4,0.7-19,1.1-28.5c0.4-9.5,0.6-19,1-28.5
	c0.3,0,0.5,0,0.8-0.1c0.5,12.3,1.1,24.5,1.6,36.8c0.3,6.2,0.4,12.3,0.7,18.5c0,0.5,0.1,1,0.1,1.5c3.6,0.3,7.2,0.6,10.9,0.9
	c0.8-2,1.6-4.1,2.4-6.2c3.9-10.3,7.8-20.6,11.7-30.9c0.2-0.5,0.5-1,0.7-1.5c0.2,0.2,0.4,0.4,0.5,0.5c-0.1,0.7-0.2,1.4-0.4,2.1
	c-0.5,2.2-1,4.4-1.6,6.6c-1.8,6.5-3.6,13-5.4,19.4c-0.9,3.3-1.9,6.7-2.9,10c-0.1,0.5-0.2,0.9-0.4,1.5c1.9,0.8,3.8,1.5,5.8,2.3
	c0.8-0.9,1.7-1.9,2.5-2.9c6.6-7.6,13.3-15.3,19.9-22.9c0.3-0.3,0.6-0.6,0.9-0.8C241.6,172.4,241.8,172.6,242,172.8z"/>
<path class="st9" d="M154.8,232.6c0.4-0.2,0.8-0.5,1.4-0.8c0.9,0.5,1.8,1.1,2.7,1.7c1.5,0.6,2.9,1.2,4.5,1.7c4,1.3,7.8,0.9,11.5-1.1
	c2.6-1.4,5.3-2.5,8.2-3c0.5-0.1,1.2-0.4,1.3-0.8c0.8-2.6,2.8-4.4,4.1-6.6c2.3-3.8,4.7-7.5,7.2-11.2c0.6-1,1.5-1.8,2.2-2.5
	c3.3,1.2,18.1,10.9,19.6,12.9c-3.2-0.4-6.1-1.3-9-2.1c-2.9-0.8-5.8-1.7-8.8-2.5c-1.3,2.5-2.6,4.7-3.8,6.9c3.7,2.1,7.2,4.1,10.7,6.1
	c1,0.6,2,0.7,3.1,0.3c3.4-1.3,6.7-0.6,9.7,1.2c0.2,0.1,0.4,0.2,0.5,0.3l0.1,0c-0.1,0.3-0.1,0.7-0.2,1c-0.4,1.6-2.4,3.5-3.6,3.2
	c-1.8-0.4-3.2,0.6-4.7,1.1c-1.8,0.6-3.7,1.2-5.6,1.4c-1.5,0.2-3,0.5-4.3,1.2c-0.1,0.7-0.3,1.4-0.4,2.2c-0.9,0-1.7,0-2.6,0
	c-1.2-0.1-2.5-0.2-3.7-0.3c0,0-0.1,0-0.1,0c-0.4-0.1-0.7-0.3-1.1-0.4l-0.1,0c0,0-0.1-0.1-0.1-0.1c-0.3-0.1-0.6-0.3-0.9-0.4
	c0,0,0,0,0,0c-0.3-0.1-0.7-0.3-1-0.4l-0.2,0c0,0-0.1-0.1-0.1-0.1c-0.2-0.1-0.4-0.2-0.6-0.3l-0.1,0c0,0-0.1-0.1-0.1-0.1
	c-0.2-0.1-0.4-0.2-0.6-0.3l-0.1,0c0,0-0.1-0.1-0.1-0.1c-0.2-0.1-0.4-0.2-0.7-0.3l-0.1,0c0,0-0.1-0.1-0.1-0.1
	c-0.3-0.1-0.6-0.3-0.9-0.4c0,0,0,0,0,0c-1.9-1.7-4-1.5-6.2-1.1c-1.5,0.3-2.8,0.7-4.4,0c-1.8-0.8-2.7-0.1-2.7,2c0,0.6,0,1.1,0,1.7
	c0,0,0,0,0,0c-0.3,0.1-0.6,0.3-0.9,0.4c0,0,0,0,0,0c-0.3,0.1-0.6,0.3-0.9,0.4c0,0,0,0,0,0c-0.3,0-0.7,0-1-0.1
	c-1.4-0.4-2.6-0.6-3.9,0.3c-0.5,0.3-1.3,0-2,0c-0.7,0-1.4-0.1-2-0.2l-0.1,0c0,0-0.1-0.1-0.1-0.1c-0.3-0.1-0.6-0.3-1-0.4l-0.2,0
	c0,0-0.1-0.1-0.1-0.1c-0.2-0.1-0.3-0.2-0.5-0.3c0,0,0,0,0,0c0-0.3,0.1-0.5,0.1-0.8c0-1.7-0.6-2.2-2.3-2.2c-0.4,0-0.8,0.1-1.2,0.1
	c-1.1,0-2.3,0-3.4,0c-2.4-0.1-4.9-0.6-7.2,0.7l-0.1,0.1c0,0-0.1-0.1-0.1-0.1c-0.5,0-1,0-1.4-0.1c-1.5-0.2-2.6-1.4-2.9-2.9
	c0.3-0.3,0.7-0.6,1-0.9c0.6,0.1,1-0.1,1.1-0.8c0.2-0.2,0.5-0.3,0.7-0.5c0.2-0.1,0.4-0.2,0.6-0.4l0.1-0.1c0,0,0.1,0,0.1,0
	c2.4-0.1,2.7-0.2,4.7-1.2c0.5-0.3,1.2-0.3,1.8-0.4C154,232.9,154.4,232.8,154.8,232.6L154.8,232.6z"/>
<path class="st10" d="M129.9,225c0-0.7-0.1-1.3-0.1-2c0.4,0.4,0.7,0.8,1.1,1.2c0.4-0.2,0.8-0.3,1.2-0.5c0.5-0.3,0.7-0.8,0.5-1.4
	c-0.3-0.6-0.5-1.3-1.4-1.3c-0.7,0-1.2,0.3-1.3,1c0,0.3-0.1,0.5-0.1,0.8c-1.1-3.5-2.3-7-3.2-10.5c-3.3-13.6-4.1-27.2-2.2-41.1
	c1.5-10.9,4.1-21.5,8.5-31.6c4.7-10.9,11.3-20.5,19.6-28.9c2.7-2.8,5.8-4.6,10.2-5c-0.7,0.8-1.2,1.4-1.8,1.9
	c-4.8,4.7-9.4,9.6-13.4,15.1c-7.3,10.1-12.6,21.2-16,33.2c-3.4,12.4-4.9,25-4.1,37.9c0.7,11.6,3.3,22.8,7.6,33.5
	c0.3,0.6,0.4,1.3,0.6,2c-0.4-0.4-0.9-0.8-1.4-1.2c-0.9,0.6-1.7,1.2-1.6,2.4c-0.3-0.7-0.6-1.3-1-2C131.2,227.4,130.5,226.2,129.9,225
	z M129.2,210.7c-2,0.1-2.5,0.4-2.2,1.5c0.6,2.5,1.4,5,2.1,7.4c1.8-0.2,2.2-0.6,1.9-2C130.5,215.3,129.8,213.1,129.2,210.7z"/>
<path class="st11" d="M117.3,217.4c-1.4-4-3-7.9-4.2-11.9c-3.8-13-5.2-26.4-4.4-39.9c0.8-13,3.6-25.7,8.3-37.9
	c3-7.7,6.7-15.1,11.2-22c0.4-0.6,0.8-1.1,1.2-1.6c0.3,0.2,0.7,0.4,0.8,0.7c0.5,0.9,0.9,1.8,1.3,2.7c-0.2,0.6-0.3,1.3-0.7,1.9
	c-9.5,15.4-15,32.2-17.2,50.1c-1.6,13.1-0.7,26,2.1,38.9c0.1,0.6,0.2,1.2,0.3,1.8c-1.4-0.6-1.7-1.8-1.5-3.2c0.2-1.8-0.2-2.6-1.5-2.9
	c-0.5,0.7-1,1.4-1.3,1.9c0.4,1.3,0.9,2.3,1.1,3.3c0.2,1-0.1,2.2,0.1,3.2c0.4,1.8,0.9,3.6,1.4,5.4c0.2,0.9,0.6,1.6,1.7,1.5
	c1.1-0.1,1.7-0.6,1.8-1.7c0.1-0.3,0.1-0.7,0.1-1c0.2,0.5,0.4,1,0.6,1.5c0.1,0.5,0.2,0.9,0.3,1.4c0.6,1.9,1.2,3.8,1.9,5.6
	c-0.3,0-0.7,0-1,0C117.5,215.2,117.5,215.2,117.3,217.4z M117.6,214.4c0-0.1-0.1-0.3-0.1-0.3c-0.1,0-0.2,0.1-0.3,0.1
	c0,0.1,0.1,0.3,0.1,0.3C117.3,214.6,117.5,214.5,117.6,214.4z"/>
<path class="st11" d="M141.6,113.7c-0.5,0.8-1,1.6-1.6,2.4c-8.9,12.2-14.4,25.9-17.6,40.5c-2.5,11.7-3.2,23.6-1.9,35.6
	c0.7,6.1,1.8,12.2,3.4,18.2c0.4,1.3,0.6,2.6,0.9,3.9c-0.4-0.4-0.9-0.8-1.3-1.1c-1.1,0.3-1.7,0.9-1.6,2c-0.5-1.7-1-3.4-1.6-5
	c-0.2-0.6-0.6-1.1-0.9-1.7c-0.2-1.3-0.2-2.6-0.5-3.8c-3.1-12.9-3.8-25.9-2.3-39c2.3-19.4,8.8-37.3,20.6-53c0.4-0.5,0.9-1,1.4-1.6
	C139.6,111.9,140.6,112.8,141.6,113.7z"/>
<path class="st12" d="M190.1,79.5c0.2,3.8,0.5,7.6,0.7,11.4c0.1,0.8,0.1,1.6,0.2,2.7c-1.7,0.2-3.2,0.3-5,0.5
	c-0.4-8.2-0.8-16.1-1.2-24.1c2.4-0.2,4.6-0.3,6.9-0.5c2,4.9,4,9.9,6.3,15.2c2.2-5.3,3.7-10.3,5.7-15.2c2.2,0,4.3,0,6.4,0
	c0.5,1.6,0.8,20.6,0.4,24c-1.6-0.1-3.2-0.2-4.9-0.2c0-4.9,0-9.6,0-14.3c-1.1,1.3-1.5,3-2.1,4.5c-0.6,1.6-1.1,3.1-1.6,4.7
	c-0.6,1.6-1.1,3.3-1.7,5c-1.4,0.1-2.7,0.2-4,0.2c-1.6-4.1-3.2-8-4.8-11.9c-0.3-0.8-0.7-1.5-1.1-2.2c-0.1-0.2-0.2-0.3-0.4-0.5
	C190,79,190.1,79.2,190.1,79.5z"/>
<path class="st12" d="M222.2,71.3c2,0.6,3.7,1.2,5.3,1.7c1.3,5.3,2.6,10.6,3.9,15.8c0.1,0,0.3,0,0.4,0c1.6-4.3,3.2-8.5,4.8-12.9
	c1.6,0.6,3.1,1.2,4.9,1.9c-2.6,7.4-5.1,14.8-7.7,22.3c-1.6-0.6-3-1-4.3-1.6c-0.5-0.2-0.8-1-1-1.6c-1.1-4.2-2.2-8.5-3.3-12.7
	c-0.2-0.8-0.4-1.5-1.1-2.3c-1.4,4.4-2.9,8.8-4.3,13.2c-1.9-0.1-3.4-0.8-5.1-1.5C217.2,86.2,219.6,78.8,222.2,71.3z"/>
<path class="st13" d="M115.2,64.9c-2.7-3.7-5.4-7.3-8.3-11.2c1.2-1.5,2.5-3.2,3.9-4.9c5.9,4.5,11.6,8.9,17.6,13.4
	c-0.9,1-1.7,1.9-2.6,2.9c-3.6-2.3-6.6-5.2-10-7.6c-0.8,1-0.1,1.4,0.2,1.8c2.1,2.8,4.3,5.6,6.4,8.5c0.2,0.2,0.3,0.4,0.6,0.8
	c-1,0.8-2,1.7-3.3,2.8c-4.1-1.6-8.6-3.4-13.2-5.2c-0.1,0.2-0.2,0.3-0.3,0.5c3.5,3,7.6,5.4,11.2,8.6c-0.8,0.9-1.5,1.8-2.2,2.8
	c-6-4.3-11.9-8.5-17.9-12.9c1.4-1.7,2.7-3.4,4.1-5.1c4.5,1.8,8.9,3.6,13.3,5.4c0.3,0,0.7,0.1,1,0.1
	C115.5,65.3,115.4,65.1,115.2,64.9z M115.1,58c0.2-0.2,0.3-0.4,0.5-0.6c-0.5-0.4-1.1-0.7-1.6-1.1c-0.1,0.1-0.2,0.2-0.3,0.3
	C114.2,57.1,114.7,57.6,115.1,58z M105.4,66.1c0,0.1,0,0.2,0,0.3c0.2,0,0.4,0,0.6,0c0,0,0-0.1,0-0.1
	C105.8,66.2,105.6,66.1,105.4,66.1z"/>
<path class="st14" d="M301.5,128.1c-1.5,0.2-3,0.7-4.2,1.7c-1.6-4.1-3-8.3-4.7-12.4c-6.3-15.1-15-28.8-26.5-40.5
	c-12-12.1-26-21.1-42.6-25.9c0-0.2,0-0.4,0-0.7c16.7,4.2,31.1,12.6,43.7,24.2c11.9,10.9,20.9,23.8,27.9,38.2c2.2,4.6,4,9.4,6,14.1
	C301.3,127.3,301.4,127.7,301.5,128.1z"/>
<path class="st15" d="M272.8,217c-0.1-0.3-0.1-0.7-0.2-1c-0.2-0.7-0.8-0.9-1.4-0.9c-0.7,0-1.1,0.3-1.4,1c-0.2,0.5-0.5,1-0.8,1.5
	c0.9-3.9,1.8-7.8,2.6-11.8c2.6-13.5,2.6-27,0.1-40.6c-2.2-12-6.2-23.3-12.2-33.9c-0.1-0.2-0.1-0.4-0.2-0.6c-0.1-0.2-0.3-0.4-0.4-0.6
	c0,0,0,0,0,0c-0.2-0.3-0.3-0.6-0.5-0.8c0,0,0,0,0,0c-0.1-0.2-0.2-0.3-0.4-0.5c0,0,0,0,0,0c-0.2-0.3-0.3-0.5-0.5-0.8c0,0,0,0,0,0
	c-0.1-0.2-0.2-0.3-0.4-0.5l-0.1-0.1c0,0,0-0.1,0-0.1c-0.1-0.2-0.3-0.4-0.4-0.6c0,0,0,0,0,0c0.3-1.1,1-1.3,2-1.2
	c0.4,0.1,0.8,0,1.2,0.1c0,0,0,0.1,0,0.1c0.1,0.2,0.2,0.3,0.4,0.5c0,0,0,0,0,0c0.1,0.2,0.2,0.3,0.4,0.5c0,0,0,0,0,0
	c0.2,0.3,0.3,0.5,0.5,0.8c0,0,0,0,0,0c0.1,0.2,0.2,0.3,0.4,0.5c2.1,3.8,4.4,7.4,6.1,11.3c7.5,16.7,10.6,34.3,9.6,52.5
	c-0.3,4.6-1.1,9.1-1.7,13.6c-0.1-0.5-0.2-0.9-0.2-1.4c0.2-1.3,0.5-2.6,0.7-3.9c0.1-0.9-0.8-2.2-1.8-2.2c-1.1,0-1,0.9-1.1,1.6
	c-0.3,2.1-0.6,4.2-0.9,6.3c-0.3,1.8,0.8,2.8,2.7,2.3c0,0.4,0,0.9,0,1.3C274.2,212.2,273.5,214.6,272.8,217z"/>
<path class="st16" d="M166.9,258.1c1,0.5,1.9,0.9,2.9,1.4c4.9,2.7,9.8,2.6,14.8,0.1c1.3-0.6,2.6-1.3,3.9-1.9
	c2.6-1.1,5.1-1.1,7.5,0.6c0.7,0.5,1.4,0.9,2.1,1.4c3.4,2.2,6.9,2.3,10.5,0.6c1.5-0.7,3-1.5,4.5-2.2c2.9-1.4,5.8-1.3,8.5,0.6
	c0.5,0.4,1.1,0.6,1.6,1c3.9,2.5,7.9,2.7,12.1,0.7c0.2-0.1,0.4-0.1,0.6-0.1c-0.4,4.1-3.6,6.6-7.4,5.7c-1.1-0.3-2.2-0.8-3.3-1.2
	c-1.2-0.5-2.4-1.2-3.5-1.8c-2.5-1.2-5.1-1.2-7.7-0.1c-1.5,0.7-3,1.3-4.5,2.1c-3.1,1.6-6.1,1.5-9.2,0c-1.2-0.6-2.4-1.2-3.5-1.8
	c-2.6-1.4-5.2-1.4-7.8-0.3c-1.2,0.5-2.3,1-3.4,1.5c-6.4,2.6-12.3,1.4-17-3.6c-0.7-0.7-1.2-1.6-1.8-2.4
	C166.7,258.3,166.8,258.2,166.9,258.1z"/>
<path class="st16" d="M181.9,247.2c5.2,3.1,10.6,3.8,16.1,0.6c1.3-0.8,2.7-1.4,4.1-2c2.3-0.9,4.5-0.8,6.6,0.6
	c1.2,0.7,2.4,1.5,3.6,2.2c2.9,1.6,5.8,1.7,8.8,0.4c1.8-0.7,3.5-1.6,5.3-2.4c2.8-1.3,5.5-1.2,8.2,0.4c0.8,0.5,1.7,0.9,2.6,1.4
	c3.4,1.9,6.8,1.8,10.2,0.2c0.4-0.2,0.9-0.4,1.3-0.6c0,0,0.1,0,0.2,0.1c-0.5,4.7-4.6,7.3-8.9,5.5c-1.5-0.6-3-1.4-4.5-2.1
	c-2.7-1.3-5.5-1.3-8.3-0.2c-1.5,0.6-3.1,1.3-4.5,2.1c-3,1.5-6,1.5-9,0.1c-1.2-0.6-2.4-1.2-3.5-1.8c-2.9-1.5-5.9-1.5-8.9-0.3
	c-1.2,0.5-2.4,1.2-3.6,1.7c-0.9,0.4-1.9,0.7-2.9,1.1c-1.3,0-2.5,0-3.8,0c-0.2,0-0.4-0.1-0.6-0.1c-1-0.4-2-0.8-3-1.2c0,0,0,0,0,0
	c-0.5-0.3-0.9-0.5-1.4-0.8c-0.2-0.1-0.4-0.3-0.7-0.4c-0.2-0.1-0.4-0.3-0.6-0.4c-0.1,0-0.2,0-0.2-0.1c0-0.6-0.3-0.8-0.9-0.7
	c0,0,0,0,0,0c-0.1-0.1-0.3-0.2-0.4-0.4l0.1-0.2c0,0-0.1,0.1-0.1,0.1c-0.2-0.2-0.5-0.4-0.7-0.6c-0.6-0.6-1.2-1.3-1.8-1.9
	c0.2-0.2,0.5-0.5,0.7-0.7c0.1,0,0.2,0,0.3,0.1C181.6,246.9,181.8,247.1,181.9,247.2z"/>
<path class="st17" d="M333,108.4c0.5,1.6,0.9,2.9,1.4,4.4c-3.8,3.8-7.6,7.7-11.2,11.8c0.1,0.1,0.2,0.3,0.3,0.4
	c4.5-1.4,9-2.7,13.7-4.2c0.4,1.2,0.8,2.3,1.3,3.6c-7.2,2.2-14.3,4.5-21.5,6.7c-0.5-1.6-1-3-1.4-4.5c3.6-4,7.1-7.9,11-12.2
	c-2.7,0.4-4.7,1.3-6.8,1.9c-2.1,0.6-4.2,1.3-6.5,2c-0.4-1.2-0.7-2.3-1.2-3.7C319,112.6,325.9,110.4,333,108.4z"/>
<path class="st18" d="M189.2,29.4c-1.5,0.3-2.8,0.5-4.3,0.8c-0.3-1.6-0.6-3.1-0.9-4.7c-0.3-1.6-0.5-3.3-0.8-4.9
	c-0.2-1.1-0.6-2-1.9-2.2c-1.1-0.1-2.4,0.5-2.9,1.6c-0.3,0.9-0.5,1.9-0.4,2.8c0.3,2.2,0.8,4.4,1.2,6.5c0.1,0.6,0.2,1.2,0.3,1.9
	c-1.4,0.3-2.6,0.6-4.1,0.9c-0.9-5-1.9-9.9-2.8-15.1c1.3-0.2,2.5-0.5,3.7-0.7c0.2,0.5,0.3,0.9,0.4,1.1c1.5-0.9,3-1.9,4.6-2.5
	c1.8-0.6,3.5,0,5.1,1.3c1.2-1.5,2.6-2.6,4.5-3c3.1-0.6,5.3,0.6,6,3.6c0.8,3.6,1.4,7.2,2.2,11c-1.5,0.2-2.8,0.4-4.3,0.7
	c-0.5-2.8-1-5.6-1.4-8.3c-0.1-0.5-0.2-1.1-0.4-1.6c-0.4-1.4-1-1.9-2.1-1.9c-1.2,0-2.3,0.5-2.5,1.7c-0.3,1.2-0.3,2.5-0.2,3.7
	C188.2,24.5,188.7,26.8,189.2,29.4z"/>
<path class="st19" d="M175.7,71.9c0.5,1.6,0.9,3.1,1.4,4.6c-3.4,1.1-6.5,2.1-9.9,3.2c0.5,1.5,1,2.9,1.5,4.5c2.8-0.8,5.4-1.6,8.2-2.5
	c0.5,1.5,0.9,2.9,1.3,4.4c-2.8,0.9-5.4,1.7-8.1,2.6c0.9,3,1.7,5.8,2.6,8.8c-1.5,1-3.2,1.2-5,1.7c-2.3-7.6-4.6-15-7-22.6
	C165.7,75,170.6,73.5,175.7,71.9z"/>
<path class="st13" d="M299.1,90.7c-0.8-1.1-1.5-2.1-2.4-3.4c0.5-0.2,0.9-0.5,1.4-0.7c-0.2-0.3-0.2-0.4-0.3-0.4
	c-0.7-0.4-1.5-0.8-2.1-1.3c-3.1-2.5-3.4-5.8-1-9c1.6-2.1,3.7-3.3,6.2-3.9c4.8-1.1,8.3,2,8.5,7.5c2.2-1.3,4.2-2.5,6.4-3.8
	c0.7,1.1,1.4,2.2,2.3,3.4C311.7,83,305.5,86.8,299.1,90.7z M306.5,79.1c0-2.2-1.8-3.6-3.9-3.2c-1.7,0.3-3.1,1.1-4.3,2.4
	c-1.1,1.2-1.4,3.1-0.7,4.2c0.7,1.2,2.5,1.8,4.1,1.4c1.9-0.5,3.4-1.6,4.3-3.3C306.3,80,306.4,79.3,306.5,79.1z"/>
<path class="st9" d="M244,239.7c-2.9,1.1-5.8,2.3-8.7,3.3c-5.1,1.8-9.8,0.9-14.2-2c-0.2-0.1-0.4-0.2-0.6-0.3l-0.1,0
	c0,0-0.1-0.1-0.1-0.1c-0.2-0.1-0.4-0.2-0.6-0.3l-0.1,0c0,0-0.1-0.1-0.1-0.1c-0.2-0.1-0.4-0.2-0.7-0.3c0,0-0.2,0-0.2,0
	c-0.4-1.8,0.6-2.7,2.1-3.1c1.7-0.5,3.4-0.8,5.2-1.2c0,0,0.1,0,0.1,0l0.1,0.1c0.3,0.6,0.7,0.6,1.2,0.2c0.3,0,0.6,0.1,0.9,0.1
	c0.9,0.8,1.2,0.8,2.1,0c0.6-0.1,1.1-0.1,1.7-0.2c0.9,0,1.9,0.3,2.8,0.1c0.9-0.2,1.8-0.3,2.6,0.2c0.8,0.5,1.6,0.3,2.3-0.1
	c0.5-0.3,1-0.5,1.4-0.9c1.6-1.6,3.5-1.7,5.6-1.4c0.9,0.1,1.8,0.2,2.7,0.3c0.2,0,0.4,0,0.6,0.1c0.4,0.1,0.7,0.2,1.1,0.3
	c0,0,0.2,0,0.2,0c0.4,0.1,0.7,0.3,1.1,0.4c0.2,0,0.4,0,0.6,0.1c0.4,0.9,0.6,1.8,0.1,2.8c-2.1,0.3-4.2,0.6-6.3,0.9
	C245.6,238.6,244.5,238.7,244,239.7z"/>
<path class="st18" d="M207,26.9c-0.1,0.4-0.2,0.8-0.3,1.3c-1.2-0.1-2.5-0.2-3.9-0.3c0.8-6.9,1.6-13.7,2.5-20.7
	c1.4,0.1,2.7,0.2,4.3,0.4c-0.3,2.4-0.5,4.6-0.7,6.7c1.5-0.3,2.8-0.8,4.2-0.8c2.9-0.1,5.2,1.5,6.2,4.3c1,3,0.7,5.9-1,8.6
	c-2.2,3.7-6.9,4.2-10,1.3c-0.3-0.3-0.5-0.7-0.7-1C207.3,26.8,207.2,26.9,207,26.9z M208.1,21.4c0,0.5,0,1.1,0.1,1.6
	c0.4,1.7,1.7,2.8,3.3,2.9c1.5,0.1,2.7-0.7,3.2-2.4c0.3-1.2,0.5-2.6,0.4-3.9c-0.1-1.3-0.8-2.4-2.1-2.8c-1.3-0.4-2.4-0.1-3.5,0.8
	C208.4,18.7,208.1,20,208.1,21.4z"/>
<path class="st20" d="M82.8,175.4c-0.1,1.3-0.2,2.3-0.3,3.4c-0.6,0.2-1.2,0.4-1.8,0.6c0.1,0.2,0.1,0.4,0.3,0.6
	c3.3,2.9,1.2,7.6-1.8,9c-3.3,1.6-6.7,1.5-10,0c-3.3-1.6-4.6-5.6-2.5-8.6c0.1-0.2,0.3-0.4,0.6-1c-2.6,0-4.9,0-7.2,0
	c0-1.5,0-2.7,0-3.9C67.6,175.4,75.1,175.4,82.8,175.4z M73.8,179.3c-1.5-0.1-2.8,0.2-3.9,1.2c-1.6,1.5-1.4,3.4,0.5,4.5
	c2.3,1.3,4.8,1.3,7.1,0c1.8-0.9,1.9-2.9,0.4-4.3C76.8,179.6,75.3,179.2,73.8,179.3z"/>
<path class="st18" d="M62.4,224.4c-0.7-4.7-1.3-9.2-2-13.8c1.3-0.2,2.3-0.3,3.5-0.5c0.4,3.3,0.8,6.3,1.2,9.6
	c1.7-0.2,3.3-0.4,5.1-0.6c-0.3-2.8-0.6-5.6-0.9-8.5c1.3-0.3,2.5-0.5,4-0.8c0.4,2.9,0.7,5.7,1.1,8.6c3.3-0.3,6.5-0.7,9.8-1
	c0.2,1.4,0.4,2.7,0.6,4.2C77.3,222.5,70,223.4,62.4,224.4z"/>
<path class="st17" d="M154.2,42.9c0.3,0,0.6,0,0.8,0.1c2,0.4,2.7,1.9,1.8,3.7c-1.1,2.2-3.2,3.1-5.5,4c-0.2-0.6-0.3-1-0.5-1.5
	c1.1-1.1,3-1.4,3.5-3.2c-1.6-1.5-2.4,0.3-3.6,0.8c-0.3-0.6-0.5-1.1-0.8-1.7c-0.2,0-0.4,0-0.6,0.1c-4,1.3-8.7-0.9-10.4-5.9
	c-0.6-1.6-0.5-3.3,0.1-4.9c1.1-2.9,4.7-5.4,7.8-5.3c1.5,0,2.8,0.5,4,1.8c-1,0.9-1.9,1.8-2.9,2.7c-0.6-0.2-1.2-0.5-1.8-0.5
	c-1.9-0.2-3.7,1.7-3.4,3.6c0.4,2.3,1.6,3.9,3.8,4.9c1.4,0.6,3.4,0,3.9-1.4c0.3-0.8,0.2-1.9,0.3-3c1-0.4,2.2-0.8,3.5-1.3
	c1.5,2.4,0.8,4.5-0.5,6.6c-0.1,0.2-0.1,0.3-0.2,0.5C153.7,42.9,154,42.9,154.2,42.9z"/>
<path class="st21" d="M95.1,129.1c0.3-0.7,0.6-1.2,0.8-1.8c0.2-0.5,0.5-1,0.5-1.6c0-0.5-0.4-1-0.6-1.4c-0.5,0.2-1,0.3-1.3,0.7
	c-0.6,0.5-1,1.2-1.7,2c-0.3-0.6-0.5-0.9-0.7-1.2c-3.2,3.8-7.4,4.6-11.7,2.4c-5.2-2.6-4.8-8.7-2.3-11.7c1.1-1.4,2.6-1.9,5.2-1.9
	c-0.1,1.2-0.3,2.3-0.4,3.5c-0.4,0.1-0.7,0.2-1,0.3c-2.2,0.7-2.9,3.1-1.4,4.9c1.4,1.7,4.8,2.5,6.9,1.6c2.2-0.9,3.2-4.2,0.7-5.4
	c-0.2-0.1-0.3-0.3-0.6-0.5c0.5-1,1-2.1,1.5-3.2c2.8,1.3,3.9,3.4,4,6.3c0.7-0.3,1.2-0.6,1.7-0.9c1.5-0.7,2.7-0.3,3.6,1.1
	c1.1,1.7,1.1,3.4,0.2,5.1c-0.4,0.8-1.1,1.6-1.7,2.4C96.2,129.6,95.7,129.4,95.1,129.1z"/>
<path class="st14" d="M169,34.8c-0.4-0.3-0.8-0.6-1.2-0.9c-0.2,0.2-0.4,0.4-0.5,0.6c-1.1,1.9-2.8,3.1-4.9,3.6
	c-2.2,0.5-4.4-0.6-5.3-2.4c-1-2-0.6-3.9,1.1-5.4c0.8-0.7,1.8-1.3,2.7-2c0.7-0.5,1.4-1.1,2.1-1.7c0.2-0.2,0.3-0.4,0.5-0.7
	c-0.3-1.1-0.8-1.8-2-1.6c-1.8,0.2-3,1.3-3.5,3.3c-0.5,0.2-1.1,0.4-1.7,0.5c-0.5,0.1-1.1,0.2-1.9,0.4c-0.2-2,0.1-3.8,1.7-5.1
	c1.8-1.4,3.9-2.3,6.2-2.8c2-0.4,3.6,0.4,4.5,2.2c0.9,1.8,1.6,3.7,2.5,5.5c0.8,1.6,1.7,3.1,2.7,4.9C171.3,33.7,170.2,34.2,169,34.8z
	 M165.3,28.5c-1.5,1.2-2.6,2-3.7,2.9c-1,0.8-1.1,1.5-0.6,2.3c0.6,0.9,1.4,1,2.4,0.7c1.4-0.4,2.3-1.4,2.4-2.8
	C165.8,30.7,165.5,29.8,165.3,28.5z"/>
<path class="st17" d="M106.9,90.5c-0.1,5.2-4.3,8.8-9.1,8.2c-2.2-0.3-4.1-1.1-5.7-2.6c-4.3-4.1-2.7-11.1,2.9-13.2
	c4.6-1.7,10.5,1.4,11.7,6.2C106.8,89.6,106.8,90.2,106.9,90.5z M99.1,94.8c1.6-0.1,3-0.5,3.7-2c0.7-1.6,0.2-3-0.8-4.2
	c-1.1-1.3-2.7-1.8-4.4-2.1c-1.7-0.2-3.1,0.6-3.8,2c-0.7,1.4-0.4,3,0.6,4.2C95.7,94.2,97.4,94.6,99.1,94.8z"/>
<path class="st18" d="M139.9,48.8c0.1,4.4-4,8.4-8.6,8.4c-4.4,0.1-8.4-3.7-8.5-8.1c-0.1-4.2,3.9-8.2,8.3-8.3
	C135.8,40.8,139.8,44.4,139.9,48.8z M130.5,44.7c-2.6,0.1-4.4,2.7-3.4,5.1c0.7,1.8,2,2.9,3.9,3.4c2.8,0.7,5.2-1.5,4.7-4.3
	C135.4,46.8,132.7,44.6,130.5,44.7z"/>
<path class="st21" d="M89.5,133c-0.5,1.4-0.1,3.2-1.8,3.6c0.1,1.7,0.4,3.4,0.1,5c-0.4,2.7-2.4,4.1-5.2,4c-2.7-0.1-4.4-1.6-4.7-4.4
	c-0.2-1.9,0-3.9,0-5.9c-1.6-0.5-2.2-0.4-2.9,0.8c-0.8,1.4-0.6,2.4,0.9,3.9c-0.4,1-0.8,2.1-1.2,3.3c-1.7-0.5-2.7-1.5-3.2-3.2
	c-0.7-2.6,0-5,1.5-7.1c1.1-1.6,2.9-2.1,4.8-1.8c2.6,0.4,5.2,1,7.8,1.4C86.7,132.9,88,132.9,89.5,133z M81,135.9c0,1.5-0.1,2.9,0,4.3
	c0,0.8,0.7,1.5,1.5,1.5c0.7,0,1.4-0.5,1.9-1c0.6-0.7,0.6-1.7,0.3-2.5C84,136.7,82.9,135.9,81,135.9z"/>
<path class="st22" d="M324.6,172.4c0-1.4-0.9-3,0.7-4.3c-1.5-1.5-2.3-3.2-2.2-5.4c0.1-2,1.2-3.6,3.1-4.3c1.9-0.7,3.7-0.4,5.2,1.1
	c1.3,1.3,1.9,3.1,2.3,4.8c0.2,0.8,0.3,1.6,0.5,2.5c1.3,0,2.4-0.3,2.9-1.6c0.4-1.1,0-2.4-1.1-3.3c-0.9-0.8-1-1.3-0.7-3.7
	c1.8-0.2,3.2,0.7,4.1,2.2c1.2,1.7,1.6,3.7,1.2,5.8c-0.4,2.3-1.8,3.8-4,4.2c-1.7,0.4-3.4,0.6-5.1,0.8
	C329.2,171.7,327,172,324.6,172.4z M331.3,167.3c-0.3-1.2-0.5-2-0.7-2.7c-0.2-0.5-0.4-1-0.6-1.5c-0.5-0.9-1.3-1.2-2.3-1.1
	c-1,0.1-1.5,0.8-1.7,1.8c-0.3,1.7,0.5,3.1,2.2,3.5C329.1,167.5,330.1,167.3,331.3,167.3z"/>
<path class="st21" d="M325,203.7c0-1,0-2.2,0-3.4c0.4-0.2,0.9-0.4,1.5-0.7c-1.3-1.2-2.1-2.5-2.1-4.2c-0.1-2.7,1.3-4.7,3.8-5.2
	c2.6-0.5,4.9,0.7,5.8,3.2c0.4,1.2,0.6,2.6,0.8,3.8c0.1,0.7,0.2,1.3,0.4,2c1.8,0,2.3-0.3,2.7-1.4c0.5-1.5-0.1-2.5-1.5-3.2
	c0.1-1.2,0.1-2.3,0.2-3.4c2,0.1,3.3,1,4.1,2.6c0.9,1.7,1.1,3.6,0.6,5.5c-0.5,2-1.7,3.3-3.8,3.7c-1,0.2-2.1,0.3-3.1,0.4
	C331.3,203.3,328.2,203.5,325,203.7z M332.3,199.2c-0.3-1.5-0.5-2.7-0.8-4c-0.2-0.8-0.8-1.3-1.7-1.3c-0.9,0-1.6,0.4-2,1.2
	c-0.8,1.6,0.2,3.7,2,4.1C330.6,199.3,331.3,199.2,332.3,199.2z"/>
<path class="st17" d="M75.4,192c0,1.9,0,3.5,0,5c0.1,1.5,0.2,3,0.4,4.5c1.9,0.2,2.9-0.4,3.5-1.8c0.6-1.6,0.2-2.6-2-4.1
	c0.2-1,0.3-2.1,0.5-3.2c1.9,0.1,3.2,1,4.1,2.6c2.6,4.2,0.5,9.5-4.2,10.9c-2.6,0.8-5.2,0.6-7.7-0.5c-2.7-1.1-4.4-4.1-4.1-6.9
	c0.3-3.1,2.1-5.1,5.1-5.8C72.3,192.4,73.7,192.3,75.4,192z M72.6,196.1c-3,0.6-3.8,1.4-3.6,3.2c0.2,1.7,1.4,2.5,3.6,2.5
	C72.6,200,72.6,198.2,72.6,196.1z"/>
<path class="st22" d="M336.9,188c-0.4-1.2-0.7-2.3-1-3.5c0.3-0.3,0.6-0.6,1-0.9c1-0.9,1.3-1.9,1-3.2c-0.3-1.3-1.2-2-2.4-2.3
	c-1.7-0.3-3.5-0.3-5.1,0.5c-1.2,0.5-2,1.5-2.1,2.9c-0.1,1.4,0.7,2.2,1.8,2.7c0.2,0.1,0.4,0.2,0.6,0.3c0,1.1,0,2.1,0,3.3
	c-2.9-0.4-4.4-2.3-5.8-5.1c-0.4,0.7-0.7,1.2-1.1,1.6c-1.1,1-2.2,1.1-3.4,0.3c-2.1-1.4-2.6-4.7-1-6.9c1.1,0.3,1.5,1,1.3,2.1
	c-0.1,0.7,0,1.5,0.2,2.2c0.1,0.3,0.7,0.5,1,0.5c0.3,0,0.7-0.4,0.9-0.7c0.2-0.4,0.2-1,0.3-1.4c0.1-0.4,0.4-1,0.6-1
	c1.4-0.1,1.7-1.3,2.3-2.1c2.8-3.7,9.6-4.4,13.2-1.4C342.2,178.7,342.8,185.8,336.9,188z"/>
<path class="st22" d="M272.7,56.7c-1.1-0.9-2.1-1.6-3.2-2.5c1.2-1.4,2.3-2.8,3.4-4.1c1-1.2,2.1-2.4,3-3.7c1.1-1.5,0.6-3-1.1-3.7
	c-1.4-0.5-2.7-0.3-3.8,0.8c-1.1,1.1-2.2,2.3-3.3,3.5c-0.9,1-1.9,2-2.9,3.2c-1.1-0.9-2-1.7-3.2-2.7c3.3-3.8,6.5-7.6,9.8-11.4
	c1,0.7,1.9,1.3,2.9,2c-0.1,0.4-0.3,0.9-0.4,1.3c0.1,0.1,0.2,0.2,0.3,0.2c2.1-0.1,3.9,0.6,5.4,2.2c1.7,1.7,2,3.7,0.7,5.7
	C278.1,50.8,275.6,53.8,272.7,56.7z"/>
<path class="st22" d="M312.8,102.3c-1.4-3-2.8-6-4.3-9c-1.6,1.1-2.4,2.4-2.1,4.1c0.3,2,2.1,1.8,3.7,2.1c0.2,1.1,0.4,2.2,0.6,3.2
	c-3,0.4-5.3-0.8-6.7-3.4c-1.5-2.7-1.4-5.7,0.4-7.8c2.4-2.7,5.4-3.9,8.9-3.5c4,0.4,7.1,5.1,5.9,8.9c-0.3,0.9-1,1.8-1.7,2.6
	C316.4,100.9,314.9,101.6,312.8,102.3z M310.7,92.1c1,2,1.9,3.8,2.9,5.6c2.4-1.6,2.9-2.8,2-4.5C314.7,91.7,313,91.2,310.7,92.1z"/>
<path class="st14" d="M321.1,147.3c0.3-1.6-1.5-3.1,0.4-4.6c-0.3-0.3-0.6-0.5-0.9-0.8c-1.7-1.6-2.3-3.8-1.6-6c1.1-3.1,5.3-4,7.5-1.6
	c0.7,0.8,1.2,1.7,1.6,2.6c0.6,1.2,1.2,2.5,1.8,3.7c2-0.2,2.7-0.7,2.8-2c0.1-1.5-0.6-2.3-2.7-3c-0.1-1-0.2-2.1-0.3-3.3
	c2.1-0.1,3.7,0.6,4.8,2.1c0.9,1.3,1.5,2.7,1.6,4.2c0.2,3.1-1,4.8-4,5.7C328.5,145.4,325,146.3,321.1,147.3z M327.1,141.4
	c-0.5-1.3-0.8-2.5-1.3-3.6c-0.6-1.1-2.3-1.5-3.3-0.8c-0.9,0.6-1,2.1-0.3,3.2C323.1,141.7,324.6,142.1,327.1,141.4z"/>
<path class="st6" d="M77.1,158.5c-0.3,3.3-0.6,6.5-0.9,9.8c2.2,0.3,3.4-0.3,4.1-2c0.6-1.5,0.3-2.4-1.6-3.9c0.3-1,0.6-2,0.9-3.1
	c3,1.3,4.2,3.1,4.1,6.2c0,3.1-1.5,5.5-4.3,6.5c-3.7,1.3-7.2,0.8-10.3-1.8c-3.5-2.8-2.5-9.9,2.2-11.3C73.2,158.4,75,158.3,77.1,158.5
	z M73.2,168.1c0.2-2,0.4-3.9,0.6-5.9c-2.4,0.2-3.6,1.1-3.9,2.8C69.6,166.3,70.7,167.4,73.2,168.1z"/>
<path class="st13" d="M331.5,206.1c1.3,0.3,2.8,0.4,4,0.9c3.2,1.1,5,4.2,4.7,7.5c-0.3,3.3-2.5,5.8-5.7,6.6c-1.9,0.5-3.9,0.4-5.8-0.1
	c-3.5-1-5.7-4.5-5.3-8.4c0.3-3.4,3-5.9,6.7-6.2c0.4,0,0.8-0.1,1.2-0.1C331.4,206.2,331.5,206.1,331.5,206.1z M331.8,217.4
	c1.1-0.3,2-0.4,2.9-0.7c1.4-0.6,2.2-1.9,2.1-3.3c-0.1-1.6-1.1-2.3-2.4-2.8c-1.7-0.5-3.4-0.6-5.1-0.2c-1.5,0.4-2.4,1.3-2.6,2.6
	c-0.2,1.4,0.5,2.8,1.9,3.4C329.6,217,330.7,217.2,331.8,217.4z"/>
<path class="st17" d="M248.1,27.8c-1.4-0.2-2.7-0.4-4-0.7c-0.1-0.4-0.2-0.6-0.2-0.9c0-1.3-0.7-2.3-2-2.6c-1.3-0.4-2.7-0.3-3.6,0.8
	c-1.2,1.3-1.9,2.9-1.9,4.7c0,1.4,0.6,2.5,1.9,3c1.2,0.5,2.5,0.4,3.5-0.6c0.2-0.2,0.5-0.5,0.8-0.9c1.1,0.7,2.3,1.5,3.5,2.2
	c-1.6,2.3-3.6,3.3-6.2,3.1c-2.1-0.1-3.9-0.9-5.5-2.3c-1.9-1.8-2.8-3.9-2.2-6.6c0.1-0.5,0.2-0.9,0.4-1.4c1.8-5.4,6.7-7.8,12.5-4.5
	C247.4,22.7,248.2,24.5,248.1,27.8z"/>
<path class="st9" d="M149.6,263.9c0,0-0.2,0-0.2,0c-0.2-0.3-0.4-0.7-0.7-1c-1.4-1.3-1.4-1.4,0.3-2.4c0.1-0.1,0.3-0.3,0.4-0.4
	c-0.4-0.3-0.9-0.5-1.3-0.8l0,0c-0.3-0.3-0.5-0.6-0.8-0.8c-1.8-1.6-3.7-3.2-5.5-4.8c0.8-2.7,2.5-4,5.4-3.6c0.2,0,0.4,0,0.6-0.1
	c0,0,0,0,0,0c0.1,0.2,0.3,0.3,0.4,0.5c0.2,0.3,0.5,0.6,0.7,0.9c0.2,0.2,0.4,0.5,0.5,0.7c0,0-0.1,0-0.1,0c0.1,0.2,0.3,0.3,0.4,0.5
	c0,0,0,0,0,0c0.1,0.2,0.3,0.3,0.4,0.5c0,0,0,0,0,0c0.1,0.2,0.3,0.3,0.4,0.5c0.5,0.6,1.1,1.2,1.6,1.7c0.2,1.7,0.2,1.7,1.8,1.9
	c0,0,0,0,0,0c0.2,0.2,0.3,0.3,0.5,0.5c0,0,0,0,0,0c-0.1,0.7-0.3,1.3-0.4,2c1,1.6,2.5,1.6,4.1,1.4c0,0,0,0,0,0
	c0.2,0.1,0.3,0.3,0.5,0.4c0,0-0.1,0-0.1,0c0.2,0.2,0.4,0.3,0.6,0.5c0.3,0.3,0.7,0.6,1,0.9c0.2,0.1,0.3,0.3,0.5,0.4c0,0,0,0,0,0
	c0.2,0.1,0.3,0.3,0.5,0.4c0,0,0-0.1,0-0.1c0.3,0.2,0.5,0.4,0.8,0.5c0.2,0.1,0.3,0.2,0.5,0.4c-0.2,2-0.2,1.9-1.9,2.2
	c-1.9,0.3-3.6,0.3-5.4-0.4c-0.2-0.1-0.5,0-0.8,0l-0.1,0c0,0-0.1-0.1-0.1-0.1c-0.3-0.1-0.6-0.3-1-0.4l-0.2,0c0,0-0.1-0.1-0.1-0.1
	c-0.2-0.1-0.4-0.2-0.6-0.3l-0.1,0c0,0-0.1-0.1-0.1-0.1c-0.2-0.1-0.4-0.2-0.6-0.3l-0.1,0c0,0-0.1-0.1-0.1-0.1
	c-0.2-0.1-0.4-0.2-0.7-0.4c0,0-0.2,0-0.2,0C150,264.2,149.8,264,149.6,263.9z"/>
<path class="st9" d="M132.8,230.5c-0.1-1.2,0.7-1.8,1.6-2.4c0.5,0.4,0.9,0.8,1.4,1.2l0.1,0.1c0,0,0,0.1,0,0.1c0.1,0.3,0.3,0.7,0.4,1
	c0,0,0,0,0,0c0.1,0.3,0.3,0.6,0.4,0.9c0,0,0,0,0,0c0.1,0.3,0.3,0.6,0.4,0.9c1.1,2,2.1,4,3.2,5.9c0.3,0.6,0.8,1,1.2,1.6
	c0.1-0.2,0.3-0.3,0.4-0.5c0,0,0,0,0,0c0.6,0.4,1.2,0.7,1.8,1.1c-0.5,0.6-0.9,1.1-1.3,1.5c0.1,0.1,0.1,0.3,0,0.4
	c0.2,0.3,0.3,0.6,0.5,0.9c0,0,0,0,0,0c0.1,0.2,0.2,0.3,0.4,0.5c0,0,0,0,0,0c0,0.6,0,1.2,0.8,1.2c0,0,0,0,0,0
	c0.2,0.3,0.3,0.5,0.5,0.8c0,0,0,0,0,0c-1.5,3.1-3.6,4-7,3.2c-0.3-0.1-0.7-0.2-1-0.3c-0.5-0.6-1.1-1.2-1.6-1.8
	c-0.2-0.2-0.4-0.5-0.6-0.7c0,0,0,0,0,0c0.1-0.6,0.2-1.3,0.4-2.2c-0.8,0-1.4,0.1-2.1,0.1l0-0.1c0,0,0,0.1,0,0.1
	c0.2-0.6-0.1-0.9-0.8-0.9c0,0,0,0,0,0c-0.1-0.2-0.3-0.3-0.4-0.5c-0.1-0.2-0.3-0.3-0.4-0.5c-0.2-0.2-0.4-0.5-0.5-0.7c0,0,0,0,0,0
	c0.5-2.4,1.8-3.3,4.8-3.4c0.3,0.3,0.6,0.7,0.9,1c0.2,0.4,0.4,0.7,0.6,1c0.1-0.1,0.2-0.2,0.3-0.3c-0.2-0.3-0.5-0.6-0.7-1
	c-0.3-0.7-0.7-1.3-1-2c-0.8-1.8-1.6-3.6-2.4-5.4C133,231.1,132.9,230.8,132.8,230.5L132.8,230.5z M138.1,241.8
	c0.1,0.1,0.1,0.2,0.2,0.3c0-0.1-0.1-0.2-0.1-0.4c0-0.5-0.1-1-1.2-1.2C137.6,241.2,137.9,241.5,138.1,241.8z M138.9,242.8
	L138.9,242.8L138.9,242.8L138.9,242.8z"/>
<path class="st6" d="M251.5,32.8c1.1,0.2,2.2,0.2,3.2,0.5c1.6,0.4,3.3,1,4.8,1.5c0.9-1.5,0.9-2,0-2.8c-1.3-1.3-2.6-1.5-4.6-0.5
	c-0.6-0.6-1.3-1.3-1.9-2c0-0.3,0-0.7,0-1c1.6-1.3,3.4-1.6,5.3-0.8c1.6,0.7,3.2,1.6,4.5,2.6c1.9,1.4,2.2,3.3,1.1,5.4
	c-0.5,1-1.1,1.9-1.7,2.8c-1.8,0.3-3.4,0.9-4.3,2.7c-0.5,1-1.4,1.2-2.4,1c-2,0-4-0.2-5.8-1.2c-1.7-1-2.8-2.4-2.3-4.6
	C249,36.3,250.9,34.6,251.5,32.8z M258,37.1c-1.2-0.3-2.4-0.7-3.5-1c-0.2-0.1-0.4-0.1-0.6-0.1c-0.9-0.1-1.7,0-2.1,0.9
	c-0.3,0.9,0,1.6,0.6,2.2c0.2,0.2,0.6,0.4,0.9,0.5C255.5,40.6,257,39.8,258,37.1z"/>
<path class="st9" d="M117.3,217.4c0.2-2.2,0.2-2.2,2.4-2.2c0.3,0,0.7,0,1,0c0.7,1.8,1.4,3.6,2.2,5.4c0.4,0.9,1,1.7,1.6,2.6l0,0
	c0.1,0.3,0.3,0.5,0.4,0.8l0,0c0.1,0.3,0.3,0.6,0.4,0.8l0,0c0.1,0.2,0.2,0.4,0.2,0.6c0.1-0.2,0.1-0.4,0.2-0.6
	c0.5-0.4,1.1-0.9,1.6-1.3c0.6,0.5,1,0.9,1.4,1.2c0,0,0,0,0,0c0,0.2,0,0.4,0,0.6c0.1,1.4,0.8,2.9-0.7,4.1c-0.6,0.5,0.3,1.7,1.3,1.4
	c0.9-0.3,1.6-0.3,2.4,0.1c0.4,0.8,0.8,1.7,1.2,2.5c-0.5,2.6-2.1,4-4.7,4.3c0,0,0.1,0,0.1,0c-0.1-0.2-0.3-0.3-0.4-0.5c0,0,0,0,0,0
	c-0.1-0.2-0.2-0.3-0.3-0.5l-0.1-0.1c0,0,0-0.1,0-0.1c-0.1-0.2-0.3-0.4-0.4-0.6c-3.2-4.5-6-9.3-7.9-14.5c-0.1-0.3-0.3-0.6-0.4-0.9
	c0,0-0.1-0.1-0.1-0.1s0-0.1,0-0.1c-0.1-0.3-0.3-0.7-0.4-1c0,0,0,0,0,0c-0.1-0.3-0.3-0.6-0.4-0.9c0,0,0-0.1,0-0.1
	c-0.1-0.2-0.2-0.4-0.3-0.7C117.3,217.6,117.2,217.5,117.3,217.4z M126.1,226.8c0,0.1,0,0.1,0.1,0.2c0,0,0.1,0,0.1,0
	C126.2,226.9,126.1,226.9,126.1,226.8c0-0.2-0.1-0.4-0.1-0.6c-0.1,0-0.2,0.1-0.3,0.1C125.8,226.5,126,226.6,126.1,226.8z"/>
<path class="st21" d="M286,57.4c1,0.5,2.1,1.1,3.1,1.5c1.2-0.6,1.5-1.4,1-2.5c-0.7-1.4-1.8-1.9-4-1.7c-0.4-0.5-0.8-1-1.2-1.5
	c-0.4-0.5-0.7-1-1-1.6c2.4-1.1,4.6-1.1,6.5,0.5c1.3,1.1,2.4,2.3,3.3,3.7c1.3,2,1,3.7-0.6,5.4c-0.6,0.6-1.2,1.1-1.8,1.7
	c-2.1,1.8-4.3,3.5-5.6,6c-2.4-1.2-2.9-2.1-2.5-3.7c-1.3-0.6-2.5-1.3-3.8-1.9c0.5-0.6,1-1.2,1.5-1.7c2.1,2.1,4.3,1.8,6.2-0.7
	c-0.4-0.3-0.9-0.6-1.3-0.9C285.7,59.1,285.9,58.3,286,57.4z"/>
<path class="st14" d="M334.2,148.5c0-0.6-0.1-1-0.1-1.6c1-0.2,1.9-0.4,3-0.6c0.3,0.5,0.4,1,0.7,1.5c1.1-0.2,2.2-0.3,3.3-0.5
	c1,1.1,2,2.1,3.2,3.4c-2.1,0.5-3.9,0.9-5.7,1.4c0,0.5,0,1.1,0,1.8c-0.9,0.2-1.9,0.4-2.9,0.7c-0.2-0.7-0.4-1.3-0.7-2.1
	c-2.7,0.5-5.4,1-8.1,1.6c-1.1,0.3-1.2,0.6-0.9,2.6c-0.9,0.2-1.8,0.5-2.6,0.7c-2.2-3.6-1.1-6.6,2.8-7.5c1.9-0.5,3.8-0.6,5.7-0.9
	C332.5,148.8,333.3,148.7,334.2,148.5z"/>
<path class="st23" d="M124.5,266.8c-0.8,0.2-1.6,0.4-2.4,0.5c-4.3-5.4-7.8-11.2-11-17.3c-6-11.4-10.5-23.5-13.1-36.2
	c-0.2-0.9-0.3-1.9-0.5-2.9c0.2,0,0.4,0,0.6,0c1.6,5.6,3,11.2,4.9,16.7c4.8,13.8,11.7,26.6,20.8,38
	C124.1,266,124.3,266.4,124.5,266.8z"/>
<path class="st13" d="M202.8,289.3c-0.5,1.7-1,3.5-1.5,5.3c-0.8,0-1.6,0-2.6,0c-0.5-2-1-4-1.6-6c-0.1,0-0.2,0-0.4,0c0,1.9,0,3.9,0,6
	c-1,0-1.8,0-2.7,0c0-3.4,0-6.8,0-10.3c1.5,0,2.8,0,4.4,0c0.5,1.8,1,3.6,1.5,5.4c0.1,0,0.2,0.1,0.3,0.1c0.6-1.8,1.1-3.6,1.8-5.5
	c1.3,0,2.6,0,4,0c0,3.4,0,6.8,0,10.4c-0.9,0-1.7,0-2.6,0c0-1.8,0-3.5,0-5.3c0-0.6,0.1-1.1,0.1-1.7c-0.1,0-0.3,0-0.4-0.1
	C203,288.1,202.9,288.7,202.8,289.3z"/>
<path class="st21" d="M85.2,152.6c-0.2,1.5-0.4,2.6-0.6,4c-5.5-0.8-10.9-1.6-16.4-2.5c0.6-1.5-0.2-3.3,1.7-4.2
	c-1.2-2.4-1.2-2.9,0-5.2c1.2,0.3,2.4,0.5,3.5,0.8c0.1,0.3,0.2,0.4,0.1,0.4c-1.2,3.4-0.4,4.7,3.1,5.4
	C79.4,151.8,82.2,152.1,85.2,152.6z"/>
<path class="st24" d="M131.6,107.4c-0.4-0.9-0.8-1.9-1.3-2.7c-0.2-0.3-0.5-0.5-0.8-0.7c3.1-4.9,6.7-9.5,11.2-13.3
	c2-1.7,5.3-2.8,7.9-2.8c-0.9,0.9-1.6,1.7-2.4,2.4c-5.1,4.8-9.3,10.3-13.3,15.9C132.5,106.7,132,107,131.6,107.4z"/>
<path class="st24" d="M270.4,109.4c-3.1-4.2-6-8.5-9.4-12.4c-2.5-3-5.5-5.6-8.3-8.4c-0.2-0.2-0.5-0.5-0.6-1.1
	c1.2,0.4,2.5,0.7,3.7,1.3c1.4,0.7,2.9,1.4,4.1,2.5c5.2,4.8,9.5,10.2,13.2,16.2C272.7,108.7,271.7,109.2,270.4,109.4z"/>
<path class="st14" d="M223,285.3c-0.4-1.4-0.8-2.8-1.2-4.3c0.9-0.3,1.8-0.5,2.9-0.9c1,3.3,1.9,6.6,2.9,10.1c-1,0.4-1.9,0.7-2.9,1
	c-1.6-1.3-3.1-2.6-4.7-3.8c-0.1,0.1-0.2,0.1-0.4,0.2c0.3,1.5,0.7,3.1,1,4.7c-1,0.3-1.9,0.5-2.9,0.8c-1-3.4-1.9-6.7-2.9-10.1
	c0.7-0.2,1.3-0.4,2-0.7c0.7-0.3,1.1,0,1.7,0.4c1.3,1.1,2.6,2,4,3c0.2,0.1,0.3,0.2,0.5,0.2C223,285.8,223,285.5,223,285.3z"/>
<path class="st24" d="M177.1,247.6c0.5,4-1.8,6.7-5.8,7c-2.1,0.2-4-0.4-5.8-1.4c-1.4-0.8-2.8-1.7-4.2-2.6c-1.3-0.9-2.6-1.8-4-2.6
	c-1.4-0.7-2.9-1.3-4.5-1.9c1.6-1,3.3-0.8,4.9-0.2c2.3,0.9,4.5,1.9,6.7,2.9c2.4,1.1,4.9,1.6,7.5,1c1.1-0.2,2.1-0.7,3.1-1.1
	C175.7,248.4,176.3,248.1,177.1,247.6z"/>
<path class="st9" d="M127.3,245.1c-0.1-0.1-0.2-0.3-0.4-0.4c-0.2-0.2-0.4-0.5-0.6-0.7c-0.7-1-1.3-1.9-2-2.9
	c-0.1-0.2-0.2-0.4-0.3-0.5c-0.1,0-0.1-0.1-0.1-0.2c-0.1-0.2-0.2-0.4-0.4-0.6c0,0,0,0,0,0c-0.2-0.3-0.3-0.5-0.5-0.8c0,0,0,0,0,0
	c-0.1-0.2-0.2-0.3-0.3-0.5c-0.1,0-0.1-0.1-0.1-0.2c-0.1-0.2-0.2-0.4-0.4-0.6c0,0,0,0,0,0c-0.2-0.3-0.3-0.6-0.5-0.8c0,0,0,0,0,0
	c0-0.7,0.1-1.3,1-1.4c0,0,0,0,0,0c0.1,0.2,0.2,0.3,0.4,0.5c0,0,0,0,0,0c0.2,0.3,0.4,0.5,0.5,0.8c0,0,0,0,0,0
	c0.1,0.2,0.2,0.3,0.4,0.5c0,0,0,0,0,0c0.1,0.2,0.2,0.3,0.4,0.5c0,0,0,0,0,0c0.2,0.3,0.3,0.5,0.5,0.8c0,0,0,0,0,0
	c0.1,0.2,0.3,0.3,0.4,0.5c0.2,0.2,0.3,0.4,0.5,0.6c0.1,0.2,0.3,0.4,0.4,0.6c0,0,0,0,0,0c-0.1,0.6,0.2,0.9,0.7,0.9
	c0.2,0.2,0.3,0.4,0.5,0.7c-0.1,0.9,0.3,1.3,1.2,1.4c0,0,0,0,0,0c0.2,0.2,0.4,0.5,0.6,0.7c0,0,0,0,0,0c0.1,0.2,0.3,0.3,0.4,0.5
	c0,0,0,0,0,0c0.1,0.2,0.3,0.3,0.4,0.5c0,0,0,0,0,0c0.1,0.2,0.3,0.3,0.4,0.5c0,0,0,0,0,0c0.1,0.2,0.3,0.3,0.4,0.5c0,0,0,0,0,0
	c0.1,0.2,0.3,0.3,0.4,0.5c0.7,0.7,1.3,1.4,2,2.1c0.3,0.3,0.5,0.5,0.8,0.8c0.5,0.4,1.1,0.8,1.6,1.3c0.2,0.2,0.3,0.5,0.5,0.7
	c0.2,0.1,0.3,0.3,0.5,0.4l0,0c0.2,0.1,0.3,0.3,0.5,0.4l0,0c0.2,0.1,0.3,0.3,0.5,0.4l0,0c0.2,0.1,0.4,0.3,0.6,0.4
	c0.3,0.3,0.7,0.6,1,0.9c0.1,0.2,0.3,0.3,0.4,0.5c0.1,0.1,0.3,0.3,0.4,0.4c0.3,0.2,0.5,0.3,0.8,0.5c0.2,0.1,0.3,0.3,0.5,0.4
	c0.2,0.1,0.3,0.3,0.5,0.4c0.1,0.1,0.3,0.2,0.4,0.3c0.3,0.2,0.5,0.4,0.8,0.6l0,0c0.2,0.1,0.3,0.2,0.5,0.4l0,0
	c0.2,0.1,0.4,0.3,0.6,0.4c0.6,0.4,1.3,0.8,1.9,1.3c0.3,0.2,0.5,0.3,0.8,0.5c0,0,0,0,0,0c0.1,0.1,0.3,0.3,0.4,0.4l0,0
	c0.1,0.5,0.1,1,0.2,1.6c-0.9,0.1-1.7,0.1-2.5,0.2l-0.1,0c0,0-0.1-0.1-0.1-0.1c-0.2-0.1-0.3-0.2-0.5-0.4c0,0,0,0,0,0
	c-0.2-0.1-0.4-0.3-0.6-0.4c-0.2-0.1-0.4-0.3-0.6-0.4c-0.2-0.1-0.3-0.3-0.5-0.4c0,0,0,0.1,0,0.1c-0.3-0.2-0.5-0.3-0.8-0.5
	c0,0,0,0,0,0c-0.2-0.1-0.3-0.3-0.5-0.4c0,0,0,0,0,0c-0.2-0.1-0.4-0.3-0.6-0.4c-0.2-0.2-0.4-0.3-0.6-0.5c-0.2-0.1-0.3-0.3-0.5-0.4
	c0,0,0,0,0,0c-0.2-0.1-0.3-0.3-0.5-0.4c0,0,0,0,0,0c-0.2-0.1-0.4-0.3-0.6-0.4c-0.4-0.3-0.7-0.6-1.1-0.9c-0.2-0.8-0.1-1.7-1.3-1.6
	c-0.2,0-0.4,0-0.5,0c-1-1-2.1-2.1-3.1-3.1c-0.2-0.2-0.4-0.4-0.6-0.6c0,0,0,0,0,0c-0.1-0.1-0.2-0.3-0.4-0.4c0,0,0,0,0,0
	c-0.1-0.1-0.3-0.3-0.4-0.4c-0.1-0.1-0.2-0.2-0.3-0.4c-0.1-0.2-0.3-0.4-0.4-0.5c0,0,0,0,0,0c-0.1-0.2-0.3-0.3-0.4-0.5c0,0,0,0,0,0
	c-0.1-0.2-0.3-0.3-0.4-0.5c-0.3-0.3-0.5-0.6-0.8-0.9c-0.2-0.2-0.4-0.5-0.6-0.7c0,0,0,0,0,0c-0.1-0.2-0.3-0.3-0.4-0.5c0,0,0,0,0,0
	C127.6,245.5,127.4,245.3,127.3,245.1z"/>
<path class="st18" d="M226.4,31.5c-1.5-0.4-2.7-0.7-4.2-1.1c1.3-4.8,2.6-9.6,4-14.5c1.4,0.3,2.7,0.6,4.3,1
	C229.1,21.8,227.8,26.6,226.4,31.5z"/>
<path class="st6" d="M83.9,111.1c-2-1.4-2.8-3.3-2-5.7c0.4-1.2,0.7-2.4,1.3-3.5c1.1-2,3-2.9,5.2-2.4c1.8,0.4,3.5,1.2,5.3,1.8
	c0,0.9-0.2,1.5-1.2,1.9c-0.7,0.2-1.4,0.9-2.1,1.3c-0.5,0.3-1.1,0.5-1.6,0.7c0.1-0.6,0.3-1.3-0.6-1.5c-0.9-0.2-1.8-0.2-2.4,0.6
	c-1,1.4-1,2.8,0.1,4.1c-0.4,0.9-0.8,1.8-1.2,2.7C84.4,111,84.1,111,83.9,111.1z"/>
<path class="st17" d="M178,280.3c2.8,0.7,5.4,1.5,8,2.2c0,0.4,0,0.6-0.1,0.8c-0.1,0.5-0.3,0.9-0.5,1.5c-1.5-0.4-3.1-0.8-4.6-1.3
	c-0.2,0.5-0.3,1-0.5,1.6c1.2,0.5,2.4,0.9,3.8,1.4c-0.2,0.7-0.4,1.2-0.6,2c-1.3-0.3-2.6-0.7-3.8-1c-0.4,1.3-0.8,2.6-1.3,4
	c-1-0.3-2-0.6-3.2-1C176,287.1,177,283.8,178,280.3z"/>
<path class="st24" d="M141.6,113.7c-1-0.9-2-1.8-3-2.6c2.1-3,4.6-5.7,7.4-8.1c2-1.7,4.6-2.1,7.3-2.7
	C149.3,104.8,145.4,109.3,141.6,113.7z"/>
<path class="st24" d="M251.4,119.4c-2.7-2.9-5.5-5.8-8.2-8.7c-1.1-1.1-2.4-2.1-3.5-3.2c-0.6-0.5-1.1-1.1-2-2
	c2.1,0.2,3.8,0.5,5.2,1.4c4.4,3,8.1,6.7,11.2,11.1C252.9,118,252.1,118.7,251.4,119.4z"/>
<path class="st8" d="M225.9,235.4c-1.7,0.4-3.5,0.7-5.2,1.2c-1.5,0.4-2.5,1.4-2.1,3.1c-0.5-0.1-1.1-0.3-1.6-0.4
	c-2.4-0.8-4.8-0.5-7.1,0.5c-1.8,0.9-3.6,1.8-5.4,2.6c-2.8,1.2-5.7,1.6-8.7,0.6c-0.3-0.1-0.5-0.3-0.7-0.4c1.2,0.1,2.5,0.3,3.7,0.3
	c0.8,0.1,1.6,0,2.6,0c0.2-0.8,0.3-1.5,0.4-2.2c1.3-0.6,2.8-1,4.3-1.2c1.9-0.2,3.7-0.9,5.6-1.4c1.5-0.5,2.9-1.5,4.7-1.1
	c1.2,0.3,3.1-1.7,3.6-3.2c0.1-0.3,0.1-0.7,0.2-1C222,233.7,223.9,234.6,225.9,235.4z"/>
<path class="st6" d="M99,106.4c-0.4,0-0.8,0-1.4,0.1c0.3,2,0.8,4-0.4,5.8c-2.6,0.1-2.7,0.1-2.8,2.3c-3.3,0.5-5.3-0.5-6.2-3.2
	c0.4-0.2,0.8-0.5,1.2-0.6c0.5-0.2,1.1-0.4,1.6-0.6c0.9,0.8,1.9,1.1,3,0.4c0.9-0.6,1.2-2,0.8-3.2c-0.1-0.5-0.4-0.9-0.6-1.3
	c0.3-0.1,0.7-0.1,0.9-0.3c1-0.8,1.8-1.9,3.3-1.9c0.1,0,0.3-0.7,0.4-1c0.1,0,0.3,0,0.4,0c0.3,0.5,0.6,0.9,0.9,1.4
	c-0.3,0.6-0.5,1.3-0.8,1.9C99.4,106.2,99.2,106.3,99,106.4z"/>
<path class="st8" d="M154.2,266c0.3,0,0.6-0.1,0.8,0c1.8,0.7,3.5,0.7,5.4,0.4c1.7-0.3,1.8-0.2,1.9-2.2c1.4,1,2.8,2,4.2,3
	c-0.5,0.1-1,0.1-1.5,0.2c-0.1,0.3-0.2,0.5-0.1,0.7c0.1,0.5,0.3,1,0.4,1.5c-1.3-0.6-2.7-1.3-4.3-2c0,5.1,0,10,0,14.8
	c-0.1,0-0.2,0.1-0.3,0.1c-0.2-0.4-0.4-0.8-0.5-1.2c-0.9-4-2-7.9-2.8-11.9c-0.3-1.6-1-2.7-2.6-3C154.6,266.4,154.4,266.2,154.2,266z
	 M160.1,271.1c-0.7,0.5-1.2,0.7-1.4,1c-0.3,0.6,0.6,2.3,1.4,2.8C160.1,273.8,160.1,272.7,160.1,271.1z"/>
<path class="st9" d="M229.6,212.3c0.9-0.3,1.8-0.6,2.7-0.9c0,0,0,0,0,0c0.2,0.3,0.3,0.5,0.5,0.8c0,0,0,0,0,0
	c0.1,0.2,0.2,0.3,0.4,0.5l0,0c0,0.6,0,1.2,0.8,1.3l0.1,0.1c0,0,0,0.1,0,0.1c0.1,0.2,0.2,0.4,0.4,0.6c0.3,0.2,0.6,0.3,0.8,0.5
	c0.1,0,0.3-0.1,0.4-0.1c0.1-0.1,0.1-0.1,0.2-0.1c0.3-0.1,0.7-0.2,1-0.4l0.1-0.1c0,0,0.1,0,0.1,0c0.4,0,0.8,0,1.2,0.1
	c1.5,0.2,1.7,0.6,1.5,2.1c-0.1,0.5,0,1.1-0.1,1.6l-0.1,0.1c0,0-0.1,0-0.1,0c-0.2,0.1-0.4,0.3-0.6,0.4c0,0,0,0,0,0
	c-0.3,0.2-0.6,0.3-0.8,0.5c0,0,0,0,0,0c-0.3,0.2-0.6,0.3-0.8,0.5c-0.1,0.1-0.2,0.3-0.3,0.4c-0.6,1.2-1.8,0.5-2.7,0.8l0,0
	c-0.1-0.3-0.2-0.6-0.4-0.9c-0.1-0.1-0.1-0.1-0.1-0.2c-0.1-0.3-0.3-0.7-0.4-1l0,0c-0.1-0.3-0.3-0.6-0.4-0.9c-0.8-1.5-1.7-3-2.5-4.5
	c-0.1-0.2-0.3-0.4-0.4-0.5C230,212.8,229.8,212.5,229.6,212.3z"/>
<path class="st8" d="M234.3,221c0.9-0.3,2.1,0.4,2.7-0.8c1.7,4.1,2.5,8.3,2.9,12.9c3.2-0.5,6.3-0.6,9.3,0.7
	c-0.9-0.1-1.8-0.2-2.7-0.3c-2.1-0.3-4-0.2-5.6,1.4c-0.4,0.4-0.9,0.6-1.4,0.9c-0.8,0.5-1.5,0.6-2.3,0.1c-0.8-0.5-1.7-0.4-2.6-0.2
	c-0.9,0.2-1.9-0.1-2.8-0.1c1.3-0.2,2.7-0.5,4.1-0.7c0.1-1.1,0.1-2,0.2-3C236.3,228.2,235.3,224.6,234.3,221z M237.1,233.7
	c2.1,0.1,2.6-0.4,2.3-2.2c-0.4-2.1-0.8-4.2-1.3-6.3c0-0.1-0.1-0.2-0.3-0.5c-0.5,0.1-1,0.1-1.6,0.2
	C236.4,228,236.7,230.7,237.1,233.7z"/>
<path class="st9" d="M117.8,206.6c0,0.3-0.1,0.7-0.1,1c-0.2,1-0.7,1.6-1.8,1.7c-1.1,0.1-1.4-0.6-1.7-1.5c-0.4-1.8-1-3.6-1.4-5.4
	c-0.2-1,0-2.2-0.1-3.2c-0.2-1-0.6-2-1.1-3.3c0.3-0.4,0.8-1.2,1.3-1.9c1.3,0.3,1.8,1.1,1.5,2.9c-0.2,1.4,0.1,2.6,1.5,3.2
	c0,0.2,0,0.4,0,0.6c0.1,0.4,0.2,0.7,0.4,1.1c0,0.2,0,0.4,0,0.6c-0.1,1-0.1,2.1,0.9,2.8c0,0,0,0.1,0,0.1c0.1,0.4,0.3,0.7,0.4,1.1
	C117.9,206.4,117.9,206.5,117.8,206.6z"/>
<path class="st6" d="M286,57.4c-0.2,0.9-0.3,1.7-0.5,2.6c-0.7-0.4-1.4-0.8-2.1-1.2c-0.8-0.4-1.6-0.5-2.3,0.1c-0.7,0.5-0.9,1.2-0.6,2
	c0.1,0.3,0.1,0.5,0.2,0.8c-0.5,0.6-1,1.2-1.5,1.7c-0.7-0.7-1.6-1.4-2.1-2.3c-1.5-2.6,0-5.6,3.1-6C282.6,54.8,284.4,55.9,286,57.4z"
	/>
<path class="st18" d="M91.1,110.2c-0.5,0.2-1.1,0.4-1.6,0.6c-0.4,0.2-0.8,0.4-1.2,0.6c-0.8-2.2,0.1-4.2,0.6-6.3
	c0.5-0.2,1.1-0.4,1.6-0.7c0.7-0.4,1.3-1,2.1-1.3c1-0.3,1.2-1,1.2-1.9c1.8,0.5,3.6,1,5.4,1.4c-0.1,0.4-0.3,1-0.4,1
	c-1.5,0-2.3,1-3.3,1.9c-0.2,0.2-0.6,0.2-0.9,0.3c-0.8-0.3-1.5-0.7-2.6-1.2C91.5,106.9,91.3,108.5,91.1,110.2z"/>
<path class="st8" d="M136.5,248.5c0.3,0.1,0.7,0.2,1,0.3c3.4,0.8,5.5-0.2,7-3.2c1.1,1.5,2.3,3,3.4,4.6c-0.2,0-0.4,0.1-0.6,0.1
	c-2.9-0.4-4.6,0.9-5.4,3.6c-1-0.9-1.9-1.7-2.9-2.6c-0.6-0.5-1.3-1-1.9-1.5C136.8,249.2,136.6,248.8,136.5,248.5z"/>
<path class="st11" d="M270.4,109.4c1.2-0.2,2.2-0.7,2.8-1.9c1.5,2.6,3,5.1,4.5,7.7c-1,0.7-1.9,1.4-2.9,2.1
	C273.4,114.6,271.9,112,270.4,109.4z"/>
<path class="st23" d="M344.9,192.1c0.5,0.4,1.1,0.8,1.6,1.3c1.4,1.3,1.4,2,0.3,3.6c-1.1,1.6-1.1,1.7,0.2,3.4
	c0.3,0.4,0.3,1.1,0.4,1.7c-3.6,0-4.9-2.2-3.3-5c0.6-1.1,1-2.1,0.2-3.3c-0.2-0.4,0-1,0-1.4C344.5,192.2,344.7,192.2,344.9,192.1z"/>
<path class="st7" d="M274.9,208.4c-1.9,0.5-3-0.5-2.7-2.3c0.3-2.1,0.7-4.2,0.9-6.3c0.1-0.8,0-1.6,1.1-1.6c0.9,0,1.9,1.2,1.8,2.2
	c-0.2,1.3-0.5,2.6-0.7,3.9c-0.1,0.4,0.1,0.9,0.2,1.4c-0.1,0.3-0.1,0.6-0.2,0.9c-0.1,0.6-0.3,1.3-0.4,1.9L274.9,208.4z"/>
<path class="st9" d="M243.5,212.2L243.5,212.2c0.1-0.1,0.2,0,0.2,0c0.8,0.1,1.5,0.1,1.9-0.7c0.1-0.1,0.2-0.1,0.3-0.1
	c0.3-0.1,0.7-0.3,1-0.4c0,0,0.1-0.1,0.1-0.1s0.1,0,0.1,0c0.4-0.1,0.7-0.3,1.1-0.4c0,0,0.1,0,0.1,0c0.4-0.1,0.7-0.3,1.1-0.4
	c0,0,0,0,0,0c0.3-0.1,0.6-0.2,0.9-0.4c1.6-0.6,3.2-1.2,4.9-1.8c0.2,0.2,0.4,0.3,0.5,0.5c-2.2,1.4-4.4,2.8-6.6,4.2
	c-0.2,0.1-0.3,0.2-0.5,0.3c0,0-0.1,0.1-0.1,0.1s-0.1,0-0.1,0c-0.2,0.1-0.4,0.3-0.6,0.4c0,0,0,0,0,0c-0.6,0-1.3-0.1-1.3,0.8
	c0,0,0,0,0,0c-0.3,0.2-0.6,0.3-0.8,0.5c0,0,0,0,0,0c-0.2,0.1-0.3,0.2-0.5,0.4l0,0C243.1,214.7,243,214.4,243.5,212.2z"/>
<path class="st24" d="M260,125.8c-0.4,0-0.8,0-1.2-0.1c-1-0.2-1.7,0.1-2,1.2c-1.4-2-2.8-3.9-4.2-5.9c1.8-0.3,1.9-0.4,2.2-2.1
	C256.5,121.2,258.3,123.5,260,125.8z"/>
<path class="st25" d="M79,106.4c-0.7,0.4-1.2,0.7-1.7,0.9c-0.2-0.3-0.4-0.4-0.4-0.6c-0.8-2-0.6-3.8,1.2-5.2c1-0.8,1.4-1.6,0.9-2.9
	c-0.2-0.4,0.2-1,0.4-1.6c0.1,0,0.3,0,0.4,0c0.4,0.6,0.9,1.2,1.2,1.9c0.6,1.2,0.5,2.3-0.5,3.2c-0.3,0.3-0.6,0.6-0.9,0.9
	C78.5,103.9,78.1,104.9,79,106.4z"/>
<path class="st9" d="M121.9,215.2c-0.1-1.2,0.5-1.7,1.6-2c0.4,0.4,0.8,0.7,1.3,1.1c0.1,0.1,0.1,0.1,0.1,0.2c0.1,0.3,0.2,0.7,0.3,1
	c0,0.2,0.1,0.4,0.1,0.6c0.1,0.4,0.3,0.7,0.4,1.1c0,0,0,0.2,0,0.2c0.1,0.4,0.3,0.7,0.4,1.1c0,0,0,0.2,0,0.2c0.1,0.4,0.3,0.7,0.4,1.1
	c0,0,0,0,0,0c-0.2,2.1-0.3,2.2-2.1,2.6C123.6,219.9,122.8,217.5,121.9,215.2z"/>
<path class="st22" d="M255.5,42.2c1,0.2,2,0,2.4-1c0.9-1.8,2.5-2.4,4.3-2.7c-0.4,0.7-0.7,1.3-1.1,2c-0.8,1.6-1.7,3.3-2.6,5.1
	c-1-0.5-2-1.1-3.2-1.7C255.5,43.3,255.5,42.8,255.5,42.2z"/>
<path class="st8" d="M243.5,212.2c-0.6,2.2-0.4,2.5,1.7,2.9c-1.8,1.1-3.6,2.2-5.4,3.3c0-0.5,0-1.1,0.1-1.6c0.2-1.5-0.1-1.9-1.5-2.1
	c-0.4,0-0.8,0-1.2-0.1C239.2,213.8,241.4,213,243.5,212.2z"/>
<path class="st8" d="M128,237.8c2.7-0.3,4.2-1.7,4.7-4.3c0.9,1.5,1.8,3,2.6,4.6c-3,0.1-4.3,1-4.8,3.4
	C129.7,240.2,128.9,239,128,237.8z"/>
<path class="st25" d="M232.1,11.2c-0.4,1.3-0.7,2.4-1.1,3.7c-1.4-0.3-2.7-0.6-4.3-1c0.4-1.3,0.7-2.5,1-3.8
	C229.2,10.5,230.5,10.9,232.1,11.2z"/>
<path class="st8" d="M244,239.7c0.6-1,1.6-1,2.5-1.2c2.1-0.4,4.2-0.6,6.3-0.9c0.5-1,0.3-1.9-0.1-2.8c1.3,0.4,2.6,0.8,3.9,1.2
	c-0.6,0.2-1.4-0.2-1.8,0.7c1.5,1.5,2,1.5,3-0.3c1.1,0.1,2,0.5,1.9,1.8c0,0,0,0,0,0c-4.9-0.2-9.8,0.1-14.6,1.4
	C244.8,239.6,244.4,239.6,244,239.7z"/>
<path class="st8" d="M174.9,242.3c0-0.6,0-1.1,0-1.7c0-2,0.9-2.8,2.7-2c1.6,0.7,2.9,0.3,4.4,0c2.2-0.4,4.4-0.6,6.2,1.1
	c-2.8-0.8-5.5-1.2-8.3,0c-0.9,0.4-1.8,0.9-2.8,1.4C176.3,241.6,175.6,241.9,174.9,242.3z"/>
<path class="st9" d="M156.9,222.6c1.6-0.5,2.6,0.1,2.4,1.5c-0.2,1.5-0.6,3.1-1,4.8c-0.8-0.2-1.4-0.4-2.1-0.6
	c-0.1-0.7-0.1-1.4-0.2-2.1c-0.1-0.1,0-0.2,0.1-0.3c0.1-0.5,0.3-1,0.4-1.4l0-0.1c0,0,0.1-0.1,0.1-0.1c0.1-0.5,0.3-0.9,0.4-1.4
	C156.8,222.8,156.8,222.7,156.9,222.6z"/>
<path class="st8" d="M148.2,240.1c2.3-1.3,4.8-0.8,7.2-0.7c1.1,0,2.3,0,3.4,0c0.4,0,0.8-0.1,1.2-0.1c1.7,0,2.2,0.5,2.3,2.2
	c0,0.3-0.1,0.5-0.1,0.8c-0.6-0.2-1.3-0.4-1.9-0.7c-3.3-1.6-6.7-2.2-10.3-1.6C149.4,240.1,148.8,240.1,148.2,240.1z"/>
<path class="st26" d="M180.6,274.4c0.5,0.1,1.1,0.1,1.6,0.2c3.2,0.8,6.4,1.7,9.6,2.5c0,0.2,0,0.5,0,0.7c-3.8-0.4-7.6-1-11.3-2.3
	C180.6,275.2,180.6,274.8,180.6,274.4z"/>
<path class="st26" d="M122.9,235.4c-0.8,0.1-1,0.7-1,1.4c-2-2.8-3-6-4.1-9.2c0.2,0,0.5,0,0.7,0C120,230.2,121.4,232.8,122.9,235.4z"
	/>
<path class="st8" d="M171.1,272.2c-1.8-0.8-3.7-1.6-5.5-2.4c2.1-0.1,2.1-0.1,2.2-1.8c1.4,0.8,2.9,1.7,4.3,2.5
	c-0.6,0.1-1.1,0.2-1.9,0.3C170.6,271.4,170.8,271.8,171.1,272.2z"/>
<path class="st11" d="M129.1,225.5c0.8,1.8,1.6,3.6,2.4,5.4c-0.8-0.4-1.5-0.4-2.4-0.1c-0.9,0.3-1.9-0.9-1.3-1.4
	c1.5-1.3,0.8-2.7,0.7-4.1c0-0.2,0-0.4,0-0.6C128.8,225,128.9,225.2,129.1,225.5z"/>
<path class="st27" d="M194,137.2c-0.3,0-0.5,0-0.8,0.1c0-3.5,0-7,0-10.5c0.1,0,0.3,0,0.4-0.1c0.1,0.3,0.2,0.5,0.2,0.8
	c0.1,3,0.2,6.1,0.3,9.1C194.2,136.9,194.1,137.1,194,137.2z"/>
<path class="st8" d="M180.6,274.4c0,0.4,0,0.7,0,1.1c-2.4-0.8-4.8-1.6-7.3-2.4c0.8-0.2,1.8,0.1,2-1c0.1,0,0.2,0,0.3,0.1
	c0.2,0.1,0.4,0.2,0.6,0.3C177.7,273.1,179.2,273.8,180.6,274.4z"/>
<path class="st8" d="M142.3,241.8c0.4-0.4,0.7-0.9,1.3-1.5c-0.6-0.4-1.2-0.8-1.8-1.1c0.6-0.7,1.2-1.3,1.8-2c0.3,1.5,1.4,2.7,2.9,2.9
	c0.5,0.1,1,0,1.4,0.1C146.1,240.7,144.2,241.2,142.3,241.8z"/>
<path class="st11" d="M124.5,223.1c0-0.3,0-0.6,0-0.9c1.8-0.4,1.9-0.5,2.1-2.6c0.7,1.7,1.4,3.4,2.1,5c-0.4-0.4-0.8-0.7-1.4-1.2
	c-0.5,0.4-1,0.8-1.6,1.3c-0.1,0-0.3,0-0.4,0c0,0,0,0,0,0c-0.1-0.3-0.3-0.6-0.4-0.8c0,0,0,0,0,0C124.7,223.6,124.6,223.3,124.5,223.1
	L124.5,223.1z"/>
<path class="st28" d="M212.3,277.7c-2.6,0.3-5.3,0.6-7.9,0.9c0-0.2,0-0.3-0.1-0.5c2.7-0.4,5.3-0.8,8-1.3
	C212.3,277.1,212.3,277.4,212.3,277.7z"/>
<path class="st8" d="M164.2,243.1c0.7,0.1,1.4,0.2,2,0.2c0.7,0,1.5,0.3,2,0c1.3-0.9,2.6-0.7,3.9-0.3c0.3,0.1,0.7,0,1,0.1
	C170.2,244.6,167.2,244.5,164.2,243.1z"/>
<path class="st8" d="M144.6,261c0.8,0,1.6-0.1,2.5-0.2c-0.1-0.6-0.2-1.1-0.2-1.6c0.4,0,0.8,0,1.2,0l0,0c0.3,0.4,0.6,0.8,0.9,1.2
	c-1.7,1-1.7,1.1-0.3,2.4c0.3,0.3,0.4,0.6,0.7,1C147.8,262.9,146.2,262,144.6,261z"/>
<path class="st14" d="M303.6,159.3c1,0,1.6,0.3,1.6,1.4c0,0.5,0.2,0.9,0.3,1.4c0.2,1.2,0.1,1.4-1.5,1.8
	C303.9,162.4,303.7,160.8,303.6,159.3z"/>
<path class="st27" d="M216.1,49.3c-3.3-0.4-6.6-0.9-9.9-1.3c0-0.2,0-0.3,0.1-0.5c3.3,0.4,6.5,0.8,9.8,1.2
	C216.1,48.9,216.1,49.1,216.1,49.3z"/>
<path class="st9" d="M129.7,222.9c0-0.3,0.1-0.5,0.1-0.8c0.1-0.7,0.6-1.1,1.3-1c0.9,0,1.1,0.7,1.4,1.3c0.3,0.6,0.1,1.1-0.5,1.4
	c-0.3,0.2-0.7,0.3-1.2,0.5c-0.4-0.4-0.8-0.8-1.1-1.2c0,0-0.1-0.1-0.1-0.1L129.7,222.9z"/>
<path class="st22" d="M251.5,32.8c-0.6,1.8-2.4,3.5-4,3.7C247.9,34.3,249.2,33,251.5,32.8z"/>
<path class="st8" d="M158.2,260.9c-1.6,0.2-3.1,0.1-4.1-1.4c0.1-0.7,0.3-1.3,0.4-2C155.8,258.6,157,259.8,158.2,260.9z"/>
<path class="st15" d="M254.8,118.9c-0.3,1.7-0.4,1.9-2.2,2.1c-0.4-0.5-0.8-1.1-1.3-1.6c0.7-0.7,1.5-1.4,2.6-1.4c0,0,0,0,0,0
	C254,118.6,254.3,118.9,254.8,118.9L254.8,118.9z"/>
<path class="st9" d="M175.4,272.1c-0.2,1.2-1.2,0.9-2,1c0,0-0.1,0-0.1,0s-0.1-0.1-0.1-0.1c-0.4-0.8-1.1-0.9-1.9-0.8l-0.1,0l-0.1-0.1
	c-0.2-0.4-0.5-0.8-0.9-1.4c0.7-0.1,1.3-0.2,1.9-0.3c0.1,0,0.2,0,0.3,0.1c0.2,0.1,0.4,0.2,0.6,0.3c0.1,0,0.2,0,0.3,0.1
	c0.2,0.1,0.4,0.2,0.6,0.3c0.1,0,0.2,0,0.3,0.1c0.2,0.1,0.4,0.2,0.6,0.3c0.1-0.1,0.2,0,0.2,0C175,271.9,175.2,271.9,175.4,272.1
	L175.4,272.1z"/>
<path class="st29" d="M95.5,198.1c-0.9-3.6-0.6-7.2-0.4-10.8c0.2,2,0.4,4.1,0.6,6.1c0.1,1.6,0.2,3.1,0.4,4.7
	C95.9,198.1,95.7,198.1,95.5,198.1z"/>
<path class="st26" d="M216.1,49.3c0-0.2,0-0.4,0-0.6c2.5,0.5,4.9,1.1,7.4,1.6c0,0.2,0,0.4,0,0.7C221,50.4,218.6,49.9,216.1,49.3z"/>
<path class="st25" d="M98.1,211c-0.2,0-0.4,0-0.6,0c-0.4-2.2-0.8-4.5-1.2-6.7c0.2,0,0.4,0,0.6,0.1C97.3,206.5,97.7,208.7,98.1,211z"
	/>
<path class="st9" d="M167.8,268c-0.2,1.7-0.2,1.7-2.2,1.8c-0.1,0-0.2,0-0.3-0.1c-0.1-0.5-0.3-1-0.4-1.5c0-0.2,0.1-0.4,0.1-0.7
	c0.5-0.1,1-0.1,1.5-0.2c0,0,0,0,0,0c0.2,0.1,0.4,0.3,0.6,0.4C167.3,267.7,167.5,267.8,167.8,268z"/>
<path class="st8" d="M154.8,232.6c-0.4,0.1-0.8,0.3-1.3,0.4c-0.6,0.2-1.2,0.2-1.8,0.4c-2,0.9-2.3,1.1-4.7,1.2
	C149.4,233,152,232.5,154.8,232.6z"/>
<path class="st14" d="M301,143.9c0.9,0,1.9-0.1,2.1,1.1c0.2,1.2-0.1,1.7-1.4,2.2C301.5,146.2,301.2,145,301,143.9z"/>
<path class="st26" d="M283.1,224.7c0.6-1.3,1.1-2.6,1.8-3.9c0.2-0.4,0.5-0.7,0.8-1c0,0.3,0,0.5,0,0.8c0,0.1-0.1,0.3-0.1,0.4
	c-0.5,1.5-1,2.9-1.5,4.4C283.8,225.1,283.4,224.9,283.1,224.7z"/>
<path class="st28" d="M222.8,156.9c-0.2-0.2-0.4-0.4-0.5-0.5c0.4-1.6,1-3.1,2.1-4.5C224,153.6,224.1,155.5,222.8,156.9z"/>
<path class="st18" d="M94.4,114.6c0.1-2.2,0.2-2.3,2.8-2.3C96.8,113.6,95.8,114.3,94.4,114.6z"/>
<path class="st26" d="M151.2,181.8c0,0.4-0.1,0.8-0.1,1.3c-1.1-1.2-2.2-2.3-3.3-3.5C149.3,179.9,150.2,180.8,151.2,181.8z"/>
<path class="st28" d="M168.7,163.8c-0.2,0.2-0.5,0.5-0.7,0.7c-0.6-1.6-1.2-3.2-1.8-4.8c0.2,0,0.4,0,0.7,0
	C167.5,161.1,168.1,162.5,168.7,163.8z"/>
<path class="st26" d="M241.2,276.8c0.5-0.1,1-0.3,1.5-0.4c-0.3,1.4-0.6,2.8-0.9,4.1c-0.1,0-0.2,0-0.4,0
	C241.4,279.2,241.3,278,241.2,276.8z"/>
<path class="st28" d="M96.9,204.3c-0.2,0-0.4,0-0.6-0.1c-0.3-2.1-0.5-4.1-0.8-6.2c0.2,0,0.4,0,0.6,0
	C96.3,200.1,96.6,202.2,96.9,204.3z"/>
<path class="st27" d="M191.9,277.9c0-0.2,0-0.5,0-0.7c1.5,0.2,3,0.4,4.6,0.6c0,0.2,0,0.4-0.1,0.6
	C194.9,278.2,193.4,278.1,191.9,277.9z"/>
<path class="st9" d="M257.8,236.3c-0.9,1.8-1.5,1.8-3,0.3c0.3-0.9,1.2-0.5,1.8-0.7c0.1-0.1,0.2,0,0.2,0.1
	C257.2,236.1,257.5,236.2,257.8,236.3L257.8,236.3z"/>
<path class="st14" d="M309.3,161.4c-0.5-0.2-1.3-0.4-1.4-0.7c-0.3-0.9,0.3-1.6,1-2.2C309,159.5,309.2,160.4,309.3,161.4z"/>
<path class="st28" d="M242,172.8c-0.2-0.2-0.4-0.5-0.7-0.7c0.7-0.8,1.4-1.6,2.2-2.4c0.2,0,0.5,0,0.7,0.1
	C243.5,170.8,242.8,171.8,242,172.8z"/>
<path class="st28" d="M250.6,193.8c-0.2-0.2-0.4-0.3-0.6-0.5c1.1-0.6,2.1-1.3,3.2-1.9c0.1,0.1,0.2,0.3,0.3,0.4
	C252.5,192.5,251.6,193.2,250.6,193.8z"/>
<path class="st27" d="M166.8,159.8c-0.2,0-0.4,0-0.7,0c-0.4-1.1-0.8-2.1-1.3-3.2c0.1-0.1,0.3-0.1,0.4-0.2
	C165.8,157.5,166.3,158.6,166.8,159.8z"/>
<path class="st8" d="M132.6,244c0.6,0,1.3-0.1,2.1-0.1c-0.2,0.9-0.3,1.5-0.4,2.2C133.8,245.4,133.2,244.7,132.6,244z"/>
<path class="st28" d="M255.6,208.5c-0.2-0.2-0.4-0.3-0.5-0.5c0.9-0.4,1.8-0.8,2.7-1.2c0.1,0.1,0.1,0.3,0.2,0.4
	C257.3,207.8,256.6,208.3,255.6,208.5z"/>
<path class="st27" d="M225.7,148.5c-0.3,1-0.6,1.9-0.9,2.9c-0.2-0.1-0.3-0.1-0.5-0.2c0.3-1,0.6-1.9,1-2.9
	C225.4,148.4,225.5,148.5,225.7,148.5z"/>
<path class="st14" d="M306.4,145.2c-1.5-0.6-1.6-0.9-0.5-2.1C306.1,143.8,306.3,144.5,306.4,145.2z"/>
<path class="st26" d="M240.2,268.4c1.4,1.2,0.7,2.7,0.6,4.1C240.6,271.2,240.4,269.8,240.2,268.4z"/>
<path class="st14" d="M310.2,186.8c-0.3-0.3-0.6-0.6-0.8-0.9c0.3-0.3,0.6-0.5,0.9-0.8C310.3,185.7,310.2,186.3,310.2,186.8z"/>
<path class="st8" d="M154.1,257.1c-1.7-0.2-1.7-0.2-1.8-1.9C152.9,255.8,153.5,256.4,154.1,257.1z"/>
<path class="st28" d="M190.9,254c1.3,0,2.5,0,3.8,0C193.4,254.6,192.1,254.6,190.9,254z"/>
<path class="st28" d="M147.4,207.1c-0.2,0.2-0.4,0.4-0.6,0.6c-0.7-0.4-1.3-0.9-2-1.3c0.1-0.1,0.2-0.3,0.3-0.4
	C145.9,206.4,146.7,206.8,147.4,207.1z"/>
<path class="st14" d="M305.7,142.2c-0.7,0-1.3-0.2-1.3-1c0-0.2,0.5-0.5,0.8-0.7C305.4,141.1,305.6,141.7,305.7,142.2z"/>
<path class="st27" d="M118.6,227.6c-0.2,0-0.5,0-0.7,0c-0.2-0.6-0.4-1.2-0.5-1.8c0.1,0,0.3-0.1,0.4-0.1
	C118,226.3,118.3,227,118.6,227.6z"/>
<path class="st28" d="M181.2,246.7c-0.2,0.2-0.5,0.5-0.7,0.7c-0.4-0.5-0.8-0.9-1.2-1.4c0.1-0.1,0.2-0.2,0.4-0.4
	C180.2,246,180.7,246.3,181.2,246.7z"/>
<path class="st26" d="M136,254c1.2,0,1.1,0.8,1.3,1.6c-0.4-0.4-0.9-0.7-1.3-1.1C136,254.3,136,254.2,136,254z"/>
<path class="st28" d="M187.3,252.7c1,0.4,2,0.8,3,1.2C189.2,253.5,188.2,253.1,187.3,252.7z"/>
<path class="st11" d="M117.4,205.2c-1-0.7-0.9-1.7-0.9-2.8C116.8,203.3,117.1,204.2,117.4,205.2z"/>
<path class="st29" d="M146.1,177.6c0.7,0.2,1.3,0.5,1.1,1.5c-0.8-0.2-1.1-0.7-1.2-1.4L146.1,177.6z"/>
<path class="st27" d="M285.6,219.7c-0.3-0.9,0.1-1.5,0.8-2.1C286.4,218.4,286.5,219.2,285.6,219.7z"/>
<path class="st26" d="M241,273.8c0.8,0.7,0.6,1.4,0.1,2.1C241.1,275.2,241,274.5,241,273.8z"/>
<path class="st23" d="M100.3,104.1c-0.3-0.5-0.6-0.9-0.9-1.4C101,102.8,101,102.8,100.3,104.1z"/>
<path class="st26" d="M128.6,243c-0.9-0.1-1.3-0.6-1.2-1.4C127.8,242.1,128.2,242.6,128.6,243z"/>
<path class="st8" d="M171.3,272.3c0.8-0.1,1.5-0.1,1.9,0.8C172.5,272.8,171.9,272.5,171.3,272.3z"/>
<path class="st27" d="M244.2,169.8c-0.2,0-0.5,0-0.7-0.1c0.4-0.4,0.9-0.8,1.3-1.2c0,0,0,0,0,0C244.6,168.9,244.4,169.4,244.2,169.8z
	"/>
<path class="st29" d="M144.8,206.4c-0.3-0.2-0.7-0.3-1.3-0.6c0.8-0.5,1.2-0.2,1.6,0.2C145,206.2,144.9,206.3,144.8,206.4z"/>
<path class="st8" d="M245.6,211.4c-0.4,0.8-1.1,0.8-1.9,0.7C244.4,211.9,245,211.7,245.6,211.4z"/>
<path class="st8" d="M233.9,213.9c-0.8-0.1-0.8-0.7-0.8-1.3C233.4,213,233.7,213.5,233.9,213.9z"/>
<path class="st8" d="M144,244.7c-0.8-0.1-0.8-0.6-0.8-1.2C143.4,243.9,143.7,244.3,144,244.7z"/>
<path class="st8" d="M246.5,214.3c0-0.9,0.6-0.9,1.3-0.8C247.3,213.8,246.9,214.1,246.5,214.3z"/>
<path class="st28" d="M183.5,250.2c0.6-0.1,0.9,0.2,0.9,0.7C184.1,250.7,183.8,250.5,183.5,250.2z"/>
<path class="st25" d="M83.9,111.1c0.3,0,0.5-0.1,0.8-0.1c-0.1,0.1-0.2,0.3-0.3,0.4C84.2,111.3,84.1,111.2,83.9,111.1z"/>
<path class="st8" d="M145.7,235.5c-0.1,0.7-0.5,0.8-1.1,0.8C145,236.1,145.3,235.8,145.7,235.5z"/>
<path class="st24" d="M254.8,118.9c-0.6,0-0.9-0.3-0.8-0.8C254.3,118.3,254.5,118.6,254.8,118.9z"/>
<path class="st8" d="M131.9,243.1c0.6,0,0.9,0.3,0.8,0.9C132.4,243.7,132.1,243.4,131.9,243.1z"/>
<path class="st28" d="M185.8,251.9c0.5,0.3,0.9,0.5,1.4,0.8C186.8,252.4,186.3,252.2,185.8,251.9z"/>
<path class="st7" d="M212.3,277.7c0-0.3,0-0.6,0-0.9c0.4,0.1,0.7,0.1,1.1,0.2c0,0.1,0,0.2,0.1,0.3
	C213.1,277.4,212.7,277.6,212.3,277.7z"/>
<path class="st15" d="M274.8,208.3c0.1-0.6,0.3-1.3,0.4-1.9C275.1,207,275,207.7,274.8,208.3z"/>
<path class="st26" d="M126.9,241c-0.6,0-0.8-0.4-0.7-0.9C126.4,240.3,126.7,240.7,126.9,241z"/>
<path class="st26" d="M134,248.9c-0.3-0.3-0.5-0.5-0.8-0.8C133.4,248.3,133.7,248.6,134,248.9z"/>
<path class="st8" d="M156.9,222.9c-0.1,0.5-0.3,0.9-0.4,1.4C156.6,223.8,156.7,223.4,156.9,222.9z"/>
<path class="st8" d="M156.4,224.5c-0.1,0.5-0.3,1-0.4,1.4C156.2,225.5,156.3,225,156.4,224.5z"/>
<path class="st15" d="M268.9,217.9c-0.1,0.4-0.3,0.9-0.4,1.3C268.6,218.8,268.8,218.4,268.9,217.9z"/>
<path class="st8" d="M174,242.7c0.3-0.1,0.6-0.3,0.9-0.4C174.6,242.4,174.3,242.6,174,242.7z"/>
<path class="st8" d="M193.8,242.3c0.4,0.1,0.7,0.3,1.1,0.4C194.5,242.5,194.1,242.4,193.8,242.3z"/>
<path class="st8" d="M163,242.7c0.3,0.1,0.6,0.3,1,0.4C163.7,242.9,163.3,242.8,163,242.7z"/>
<path class="st11" d="M126.6,219.7c-0.1-0.4-0.3-0.7-0.4-1.1C126.3,219,126.4,219.3,126.6,219.7z"/>
<path class="st8" d="M173.2,243.1c0.3-0.1,0.6-0.3,0.9-0.4C173.8,242.8,173.5,242.9,173.2,243.1z"/>
<path class="st24" d="M261.1,127.6c-0.2-0.3-0.3-0.5-0.5-0.8C260.8,127.1,261,127.3,261.1,127.6z"/>
<path class="st26" d="M129.2,243.8c-0.2-0.2-0.4-0.5-0.6-0.7C128.8,243.3,129,243.5,129.2,243.8z"/>
<path class="st8" d="M153,265.6c0.3,0.1,0.6,0.3,1,0.4C153.7,265.8,153.4,265.7,153,265.6z"/>
<path class="st24" d="M257.6,128.1c0.2,0.3,0.3,0.5,0.5,0.8C258,128.6,257.8,128.4,257.6,128.1z"/>
<path class="st24" d="M258.4,129.4c0.2,0.3,0.3,0.6,0.5,0.8C258.8,129.9,258.6,129.7,258.4,129.4z"/>
<path class="st26" d="M126.3,243.9c0.2,0.2,0.4,0.5,0.6,0.7C126.7,244.4,126.5,244.2,126.3,243.9z"/>
<path class="st8" d="M144.5,245.5c-0.2-0.3-0.3-0.5-0.5-0.8C144.2,245,144.3,245.2,144.5,245.5z"/>
<path class="st11" d="M117.7,218.5c0.1,0.3,0.3,0.6,0.4,0.9C118,219.1,117.9,218.8,117.7,218.5z"/>
<path class="st26" d="M128,246c0.2,0.2,0.4,0.5,0.6,0.7C128.4,246.5,128.2,246.3,128,246z"/>
<path class="st8" d="M134.3,246c0.2,0.2,0.4,0.5,0.6,0.7C134.7,246.5,134.5,246.2,134.3,246z"/>
<path class="st11" d="M116.5,201.8c-0.1-0.4-0.2-0.7-0.4-1.1C116.3,201.1,116.4,201.4,116.5,201.8z"/>
<path class="st23" d="M253.1,28.5c0,0.3,0,0.7,0,1C252.6,29.1,252.3,28.8,253.1,28.5z"/>
<path class="st11" d="M117.8,206.4c-0.1-0.4-0.3-0.7-0.4-1.1C117.5,205.7,117.7,206,117.8,206.4z"/>
<path class="st28" d="M182.3,249.3c0.2,0.2,0.5,0.4,0.7,0.6C182.8,249.7,182.6,249.5,182.3,249.3z"/>
<path class="st10" d="M136.6,231.4c-0.1-0.3-0.3-0.6-0.4-0.9C136.3,230.8,136.4,231.1,136.6,231.4z"/>
<path class="st10" d="M137,232.2c-0.1-0.3-0.3-0.6-0.4-0.9C136.7,231.6,136.8,231.9,137,232.2z"/>
<path class="st28" d="M131.7,250.3c0.2,0.2,0.4,0.4,0.6,0.6C132.1,250.7,131.9,250.5,131.7,250.3z"/>
<path class="st8" d="M149.5,252.2c-0.2-0.2-0.4-0.5-0.5-0.7C149.2,251.7,149.3,251.9,149.5,252.2z"/>
<path class="st11" d="M125.7,217.2c-0.1-0.4-0.3-0.7-0.4-1.1C125.5,216.5,125.6,216.9,125.7,217.2z"/>
<path class="st8" d="M250.9,234.2c-0.4-0.1-0.7-0.2-1.1-0.3C250.2,234,250.5,234.1,250.9,234.2z"/>
<path class="st8" d="M252.1,234.6c-0.4-0.1-0.7-0.3-1.1-0.4C251.4,234.4,251.8,234.5,252.1,234.6z"/>
<path class="st8" d="M236.9,214.7c-0.3,0.1-0.7,0.2-1,0.4C236.2,215,236.5,214.8,236.9,214.7z"/>
<path class="st8" d="M141.5,258.9c0.3,0.2,0.5,0.3,0.8,0.5C142,259.2,141.8,259,141.5,258.9z"/>
<path class="st11" d="M125.2,215.5c-0.1-0.3-0.2-0.7-0.3-1C125,214.9,125.1,215.2,125.2,215.5z"/>
<path class="st26" d="M123.7,236.7c-0.2-0.3-0.4-0.5-0.5-0.8C123.4,236.2,123.5,236.4,123.7,236.7z"/>
<path class="st8" d="M245.7,214.8c0.3-0.2,0.6-0.3,0.8-0.5C246.2,214.5,245.9,214.6,245.7,214.8z"/>
<path class="st11" d="M118.6,220.6c0.1,0.3,0.3,0.6,0.4,0.9C118.9,221.1,118.7,220.8,118.6,220.6z"/>
<path class="st8" d="M257.8,236.3c-0.3-0.1-0.6-0.2-0.9-0.3C257.2,236.1,257.5,236.2,257.8,236.3z"/>
<path class="st26" d="M121.9,236.8c0.2,0.3,0.3,0.6,0.5,0.8C122.2,237.4,122,237.1,121.9,236.8z"/>
<path class="st8" d="M161.9,263.9c-0.3-0.2-0.5-0.4-0.8-0.5C161.4,263.5,161.6,263.7,161.9,263.9z"/>
<path class="st26" d="M239,269c0.3-0.2,0.5-0.3,0.8-0.5C239.6,268.6,239.3,268.8,239,269z"/>
<path class="st10" d="M136.2,230.5c-0.1-0.3-0.3-0.7-0.4-1C135.9,229.8,136,230.2,136.2,230.5z"/>
<path class="st8" d="M237.3,219.8c0.3-0.2,0.6-0.3,0.8-0.5C237.9,219.5,237.6,219.7,237.3,219.8z"/>
<path class="st8" d="M232.8,212.2c-0.2-0.3-0.3-0.5-0.5-0.8C232.5,211.6,232.6,211.9,232.8,212.2z"/>
<path class="st26" d="M124.9,238.4c-0.2-0.3-0.3-0.5-0.5-0.8C124.6,237.9,124.8,238.1,124.9,238.4z"/>
<path class="st8" d="M246.9,211c-0.3,0.1-0.7,0.3-1,0.4C246.2,211.2,246.6,211.1,246.9,211z"/>
<path class="st8" d="M248.1,210.5c-0.4,0.1-0.7,0.3-1.1,0.4C247.4,210.8,247.8,210.6,248.1,210.5z"/>
<path class="st11" d="M118.1,219.3c0.1,0.3,0.3,0.7,0.4,1C118.4,220,118.2,219.7,118.1,219.3z"/>
<path class="st26" d="M123.1,238.9c0.2,0.3,0.3,0.5,0.5,0.8C123.4,239.5,123.2,239.2,123.1,238.9z"/>
<path class="st8" d="M249.4,210.1c-0.4,0.1-0.7,0.3-1.1,0.4C248.6,210.3,249,210.2,249.4,210.1z"/>
<path class="st8" d="M250.2,209.7c-0.3,0.1-0.6,0.2-0.9,0.4C249.6,210,249.9,209.8,250.2,209.7z"/>
<path class="st8" d="M238.2,219.4c0.3-0.2,0.6-0.3,0.8-0.5C238.7,219.1,238.4,219.2,238.2,219.4z"/>
<path class="st8" d="M188.1,239.7c0.3,0.1,0.6,0.3,0.9,0.4C188.7,240,188.4,239.9,188.1,239.7z"/>
<path class="st11" d="M126.1,218.5c-0.1-0.4-0.3-0.7-0.4-1.1C125.9,217.8,126,218.1,126.1,218.5z"/>
<path class="st8" d="M130.6,241.4c0.2,0.2,0.4,0.5,0.5,0.7C130.9,241.9,130.8,241.7,130.6,241.4z"/>
<path class="st8" d="M191.7,241.4c0.3,0.1,0.7,0.3,1,0.4C192.4,241.7,192.1,241.6,191.7,241.4z"/>
<path class="st8" d="M192.7,241.8c0.3,0.1,0.6,0.3,0.9,0.4C193.3,242.1,193,242,192.7,241.8z"/>
<path class="st8" d="M142.8,243c-0.2-0.3-0.3-0.6-0.5-0.9C142.5,242.4,142.7,242.7,142.8,243z"/>
<path class="st18" d="M99,106.4c0.2-0.1,0.3-0.2,0.5-0.3C99.4,106.2,99.2,106.3,99,106.4z"/>
<path class="st24" d="M260.3,126.3c-0.1-0.2-0.2-0.3-0.4-0.5C260.1,126,260.2,126.2,260.3,126.3z"/>
<path class="st24" d="M260.7,126.8c-0.1-0.2-0.2-0.3-0.4-0.5C260.4,126.5,260.5,126.7,260.7,126.8z"/>
<path class="st24" d="M256.8,126.9c0.1,0.2,0.3,0.4,0.4,0.6C257.1,127.3,257,127.1,256.8,126.9z"/>
<path class="st24" d="M257.3,127.7c0.1,0.2,0.2,0.3,0.4,0.5C257.6,128,257.4,127.8,257.3,127.7z"/>
<path class="st24" d="M261.5,128.1c-0.1-0.2-0.2-0.3-0.4-0.5C261.2,127.7,261.3,127.9,261.5,128.1z"/>
<path class="st24" d="M258.1,128.9c0.1,0.2,0.2,0.3,0.4,0.5C258.4,129.3,258.2,129.1,258.1,128.9z"/>
<path class="st24" d="M258.9,130.2c0.1,0.2,0.3,0.4,0.4,0.6C259.2,130.6,259.1,130.4,258.9,130.2z"/>
<path class="st27" d="M245.2,168.1c0-0.1,0.1-0.1,0.1-0.2C245.3,168,245.2,168,245.2,168.1C245.2,168.1,245.2,168.1,245.2,168.1z"/>
<path class="st27" d="M245.2,168.1c-0.1,0.1-0.3,0.3-0.4,0.4c0,0,0,0,0,0C244.9,168.4,245.1,168.2,245.2,168.1
	C245.2,168.1,245.2,168.1,245.2,168.1z"/>
<path class="st29" d="M146,177.7c0-0.1-0.1-0.2-0.1-0.2c0.1,0,0.2,0.1,0.2,0.1C146.1,177.6,146,177.7,146,177.7z"/>
<path class="st8" d="M146.9,234.7c-0.2,0.1-0.4,0.2-0.6,0.4C146.5,235,146.7,234.8,146.9,234.7z"/>
<path class="st27" d="M285.6,220.9c0-0.1,0.1-0.3,0.1-0.4C285.6,220.6,285.6,220.8,285.6,220.9z"/>
<path class="st26" d="M123.2,235.9c-0.1-0.2-0.2-0.3-0.4-0.5C123,235.6,123.1,235.8,123.2,235.9z"/>
<path class="st8" d="M126.9,236c0.1,0.2,0.3,0.4,0.4,0.6C127.2,236.4,127,236.2,126.9,236z"/>
<path class="st26" d="M124.1,237.2c-0.1-0.2-0.2-0.3-0.4-0.5C123.8,236.8,123.9,237,124.1,237.2z"/>
<path class="st8" d="M127.4,236.8c0.1,0.2,0.2,0.3,0.3,0.5C127.6,237.1,127.5,237,127.4,236.8z"/>
<path class="st26" d="M124.4,237.6c-0.1-0.2-0.2-0.3-0.4-0.5C124.2,237.3,124.3,237.5,124.4,237.6z"/>
<path class="st8" d="M127.7,237.2c0.1,0.2,0.3,0.3,0.4,0.5C127.9,237.6,127.8,237.4,127.7,237.2z"/>
<path class="st26" d="M122.3,237.6c0.1,0.2,0.2,0.4,0.4,0.6C122.6,238,122.4,237.8,122.3,237.6z"/>
<path class="st26" d="M122.8,238.5c0.1,0.2,0.2,0.3,0.3,0.5C123,238.8,122.9,238.6,122.8,238.5z"/>
<path class="st26" d="M125.3,238.9c-0.1-0.2-0.3-0.3-0.4-0.5C125,238.5,125.2,238.7,125.3,238.9z"/>
<path class="st8" d="M141.8,239.2c-0.1,0.2-0.3,0.3-0.4,0.5C141.5,239.5,141.7,239.3,141.8,239.2z"/>
<path class="st28" d="M183,249.9c0.1,0.1,0.3,0.2,0.4,0.4C183.3,250.1,183.2,250,183,249.9z"/>
<path class="st8" d="M143.2,243.5c-0.1-0.2-0.2-0.3-0.4-0.5C142.9,243.1,143,243.3,143.2,243.5z"/>
<path class="st11" d="M117.4,217.6c0.1,0.2,0.2,0.4,0.3,0.7C117.6,218.1,117.5,217.9,117.4,217.6z"/>
<path class="st8" d="M148.2,250.5c-0.1-0.2-0.3-0.3-0.4-0.5C147.9,250.2,148.1,250.4,148.2,250.5z"/>
<path class="st8" d="M162.2,242.3c0.2,0.1,0.3,0.2,0.5,0.3C162.6,242.5,162.4,242.4,162.2,242.3z"/>
<path class="st28" d="M184.6,251.1c0.2,0.1,0.4,0.3,0.6,0.4C185,251.4,184.8,251.2,184.6,251.1z"/>
<path class="st26" d="M127.3,245.1c0.1,0.2,0.3,0.3,0.4,0.5C127.6,245.5,127.4,245.3,127.3,245.1z"/>
<path class="st8" d="M149.9,252.6c-0.1-0.2-0.3-0.3-0.4-0.5C149.6,252.3,149.8,252.4,149.9,252.6z"/>
<path class="st8" d="M150.3,253c-0.1-0.2-0.3-0.3-0.4-0.5C150,252.7,150.1,252.9,150.3,253z"/>
<path class="st8" d="M150.7,253.4c-0.1-0.2-0.3-0.3-0.4-0.5C150.4,253.1,150.6,253.3,150.7,253.4z"/>
<path class="st28" d="M136,254c0,0.2,0,0.3-0.1,0.5c-0.2-0.2-0.3-0.3-0.5-0.5C135.6,254,135.8,254,136,254z"/>
<path class="st26" d="M130.7,245.5c-0.1-0.2-0.3-0.3-0.4-0.5C130.4,245.2,130.6,245.4,130.7,245.5z"/>
<path class="st26" d="M127.7,245.6c0.1,0.2,0.3,0.3,0.4,0.5C127.9,245.9,127.8,245.7,127.7,245.6z"/>
<path class="st8" d="M235.6,215.1c-0.1,0-0.3,0.1-0.4,0.1C235.4,215.2,235.5,215.2,235.6,215.1z"/>
<path class="st26" d="M131.1,245.9c-0.1-0.2-0.3-0.3-0.4-0.5C130.8,245.6,131,245.8,131.1,245.9z"/>
<path class="st8" d="M245.2,215.1c0.2-0.1,0.3-0.2,0.5-0.4C245.5,214.9,245.4,215,245.2,215.1z"/>
<path class="st26" d="M138.4,256.5c0.2,0.1,0.4,0.3,0.6,0.4C138.7,256.7,138.6,256.6,138.4,256.5z"/>
<path class="st26" d="M138.9,256.9c0.2,0.1,0.3,0.3,0.5,0.4C139.2,257.1,139.1,257,138.9,256.9z"/>
<path class="st8" d="M190.9,241c0.2,0.1,0.4,0.2,0.6,0.3C191.3,241.2,191.1,241.1,190.9,241z"/>
<path class="st26" d="M139.4,257.2c0.2,0.1,0.3,0.3,0.5,0.4C139.7,257.5,139.5,257.4,139.4,257.2z"/>
<path class="st8" d="M154.5,257.5c-0.2-0.2-0.3-0.3-0.5-0.5C154.2,257.2,154.4,257.4,154.5,257.5z"/>
<path class="st26" d="M129.5,244.2c-0.1-0.2-0.3-0.3-0.4-0.5C129.3,243.9,129.4,244,129.5,244.2z"/>
<path class="st26" d="M140.5,258.1c0.2,0.1,0.4,0.3,0.6,0.4C140.8,258.4,140.7,258.3,140.5,258.1z"/>
<path class="st26" d="M141,258.5c0.2,0.1,0.3,0.3,0.5,0.4C141.3,258.8,141.2,258.6,141,258.5z"/>
<path class="st8" d="M247.7,213.5c0.2-0.1,0.4-0.3,0.6-0.4C248.1,213.2,247.9,213.4,247.7,213.5z"/>
<path class="st8" d="M239,218.9c0.2-0.1,0.4-0.3,0.6-0.4C239.4,218.6,239.2,218.8,239,218.9z"/>
<path class="st8" d="M142.2,259.3c0.2,0.1,0.3,0.3,0.5,0.4C142.6,259.6,142.4,259.5,142.2,259.3z"/>
<path class="st26" d="M129.9,244.6c-0.1-0.2-0.3-0.3-0.4-0.5C129.6,244.3,129.8,244.5,129.9,244.6z"/>
<path class="st8" d="M220.4,240.6c0.2,0.1,0.4,0.2,0.6,0.3C220.9,240.8,220.6,240.7,220.4,240.6z"/>
<path class="st8" d="M143.3,260.2c0.2,0.1,0.4,0.3,0.6,0.4C143.8,260.5,143.6,260.3,143.3,260.2z"/>
<path class="st28" d="M181.9,247.2c-0.1-0.1-0.3-0.3-0.4-0.4C181.6,246.9,181.8,247.1,181.9,247.2z"/>
<path class="st8" d="M143.9,260.6c0.2,0.1,0.3,0.2,0.5,0.4C144.3,260.8,144.1,260.7,143.9,260.6z"/>
<path class="st26" d="M129.4,247.6c0.1,0.2,0.3,0.3,0.4,0.5C129.7,248,129.5,247.8,129.4,247.6z"/>
<path class="st8" d="M158.7,261.3c-0.2-0.1-0.3-0.3-0.5-0.4C158.4,261,158.5,261.2,158.7,261.3z"/>
<path class="st8" d="M159.2,261.7c-0.2-0.2-0.4-0.3-0.6-0.5C158.8,261.4,159,261.6,159.2,261.7z"/>
<path class="st8" d="M160.7,263c-0.2-0.1-0.3-0.3-0.5-0.4C160.4,262.7,160.6,262.9,160.7,263z"/>
<path class="st8" d="M161.2,263.4c-0.2-0.1-0.3-0.3-0.5-0.4C160.8,263.1,161,263.3,161.2,263.4z"/>
<path class="st8" d="M149.6,263.9c0.2,0.1,0.4,0.3,0.7,0.4C150,264.2,149.8,264,149.6,263.9z"/>
<path class="st8" d="M150.4,264.3c0.2,0.1,0.4,0.2,0.7,0.4C150.9,264.6,150.6,264.5,150.4,264.3z"/>
<path class="st8" d="M234.4,214.7c-0.1-0.2-0.2-0.4-0.4-0.6C234.1,214.3,234.3,214.5,234.4,214.7z"/>
<path class="st8" d="M151.3,264.7c0.2,0.1,0.4,0.2,0.6,0.3C151.7,265,151.5,264.9,151.3,264.7z"/>
<path class="st8" d="M152.1,265.2c0.2,0.1,0.4,0.2,0.6,0.3C152.5,265.4,152.3,265.3,152.1,265.2z"/>
<path class="st8" d="M189.2,240.2c0.2,0.1,0.4,0.2,0.7,0.3C189.6,240.4,189.4,240.3,189.2,240.2z"/>
<path class="st8" d="M190,240.6c0.2,0.1,0.4,0.2,0.6,0.3C190.4,240.8,190.2,240.7,190,240.6z"/>
<path class="st8" d="M167.1,267.6c-0.2-0.1-0.4-0.3-0.6-0.4C166.7,267.3,166.9,267.4,167.1,267.6z"/>
<path class="st26" d="M124,240.5c0.1,0.2,0.2,0.4,0.3,0.5C124.3,240.9,124.1,240.7,124,240.5z"/>
<path class="st8" d="M131.5,242.6c0.1,0.2,0.3,0.3,0.4,0.5C131.8,242.9,131.6,242.8,131.5,242.6z"/>
<path class="st26" d="M129.8,248.1c0.1,0.2,0.3,0.3,0.4,0.5C130,248.4,129.9,248.2,129.8,248.1z"/>
<path class="st26" d="M238.6,269.3c0.2-0.1,0.3-0.2,0.5-0.4C238.9,269.1,238.7,269.2,238.6,269.3z"/>
<path class="st8" d="M172.9,270.9c-0.2-0.1-0.4-0.2-0.6-0.3C172.5,270.7,172.7,270.8,172.9,270.9z"/>
<path class="st8" d="M173.7,271.3c-0.2-0.1-0.4-0.2-0.6-0.3C173.4,271.1,173.5,271.2,173.7,271.3z"/>
<path class="st8" d="M248.6,213c0.2-0.1,0.3-0.2,0.5-0.3C248.9,212.8,248.7,212.9,248.6,213z"/>
<path class="st8" d="M174.6,271.7c-0.2-0.1-0.4-0.2-0.6-0.3C174.2,271.5,174.4,271.6,174.6,271.7z"/>
<path class="st28" d="M175.4,272c-0.2-0.1-0.4-0.2-0.5-0.3C175,271.9,175.2,271.9,175.4,272z"/>
<path class="st8" d="M219.6,240.2c0.2,0.1,0.4,0.2,0.6,0.3C220,240.4,219.8,240.3,219.6,240.2z"/>
<path class="st28" d="M176.3,272.4c-0.2-0.1-0.4-0.2-0.6-0.3C175.9,272.3,176.1,272.3,176.3,272.4z"/>
<path class="st8" d="M218.7,239.8c0.2,0.1,0.4,0.2,0.7,0.3C219.2,240,218.9,239.9,218.7,239.8z"/>
<path class="st8" d="M233.1,212.6c-0.1-0.2-0.2-0.3-0.4-0.5C232.9,212.3,233,212.5,233.1,212.6z"/>
<path class="st26" d="M126.2,240.1c-0.1-0.2-0.3-0.4-0.4-0.6C125.9,239.7,126,239.9,126.2,240.1z"/>
<path class="st26" d="M130.2,248.5c0.1,0.2,0.3,0.4,0.4,0.5C130.5,248.9,130.3,248.7,130.2,248.5z"/>
<path class="st28" d="M214.2,277.4c0.3,0,0.6-0.1,0.9-0.1C214.7,277.4,214.4,277.4,214.2,277.4z"/>
<path class="st28" d="M130.9,249.4c0.1,0.1,0.3,0.3,0.4,0.4C131.2,249.7,131,249.6,130.9,249.4z"/>
<path class="st26" d="M130.3,245.1c-0.1-0.2-0.3-0.3-0.4-0.5C130,244.8,130.2,244.9,130.3,245.1z"/>
<path class="st28" d="M131.4,249.9c0.1,0.1,0.2,0.3,0.4,0.4C131.6,250.1,131.5,250,131.4,249.9z"/>
<path class="st26" d="M123.6,239.7c0.1,0.2,0.2,0.4,0.4,0.6C123.8,240.1,123.7,239.9,123.6,239.7z"/>
<path class="st27" d="M273.7,228.1c0.2,0,0.5,0,0.7-0.1c-0.8,1.4-1.6,2.8-2.4,4.3c-0.1-0.1-0.1-0.1-0.2-0.2
	C272.4,230.8,273,229.4,273.7,228.1z"/>
<path class="st27" d="M261.5,243.5c-0.2,0.3-0.3,0.5-0.5,0.8l0,0c0.1-0.3,0.2-0.6,0.4-0.9L261.5,243.5z"/>
<path class="st27" d="M270.5,234.3c0.2-0.3,0.3-0.6,0.5-0.9c0,0,0.1,0.1,0.1,0.1c-0.2,0.3-0.3,0.6-0.5,0.9
	C270.6,234.4,270.5,234.3,270.5,234.3z"/>
<path class="st28" d="M269.8,235.6c-0.1,0.2-0.1,0.4-0.2,0.5c-0.1,0-0.2-0.1-0.1-0.1C269.6,235.8,269.7,235.7,269.8,235.6
	C269.8,235.5,269.8,235.6,269.8,235.6z"/>
<path class="st29" d="M251.9,260.6c-0.1,0.1-0.3,0.2-0.4,0.3c0,0-0.1-0.1-0.2-0.2C251.5,260.6,251.6,260.5,251.9,260.6
	C251.8,260.5,251.9,260.6,251.9,260.6z"/>
<path class="st27" d="M263,240.8c0.1-0.2,0.2-0.5,0.3-0.7c0.1,0,0.2,0.1,0.2,0.2c-0.1,0.2-0.2,0.5-0.3,0.7
	C263.1,241,263.1,240.9,263,240.8z"/>
<path class="st27" d="M272,232.3c-0.1,0.1-0.2,0.2-0.3,0.3c0-0.2,0-0.3,0.1-0.5C271.8,232.2,271.9,232.2,272,232.3z"/>
<path class="st27" d="M271,233.4c0.1-0.1,0.1-0.2,0.2-0.3c0,0.1-0.1,0.3-0.1,0.4C271.1,233.5,271,233.4,271,233.4z"/>
<path class="st28" d="M270.6,234.4c-0.1,0-0.2,0.1-0.2,0.1c0-0.1,0.1-0.2,0.1-0.2C270.5,234.3,270.6,234.4,270.6,234.4z"/>
<path class="st28" d="M269.8,235.5c0.1-0.1,0.2-0.1,0.2-0.2C269.9,235.4,269.9,235.5,269.8,235.5
	C269.8,235.6,269.8,235.5,269.8,235.5z"/>
<path class="st29" d="M264.4,238.9c-0.1,0.1-0.2,0.2-0.3,0.3c0.1-0.1,0.1-0.3,0.2-0.4C264.3,238.8,264.4,238.9,264.4,238.9z"/>
<path class="st27" d="M261.4,243.4c0.1-0.1,0.2-0.2,0.2-0.3c0,0.1-0.1,0.3-0.1,0.4C261.5,243.5,261.4,243.4,261.4,243.4z"/>
<path class="st27" d="M262.2,242.1c0.1-0.1,0.2-0.2,0.3-0.3c0,0.1-0.1,0.3-0.1,0.4C262.3,242.2,262.3,242.2,262.2,242.1z"/>
<path class="st27" d="M263.2,241c-0.1,0.1-0.2,0.2-0.3,0.3c0-0.2,0.1-0.3,0.1-0.5C263.1,240.9,263.1,241,263.2,241z"/>
<path class="st29" d="M252.5,260.3c-0.2,0.1-0.4,0.2-0.6,0.3c0,0-0.1-0.1-0.1-0.1c0.1-0.1,0.3-0.3,0.4-0.4
	C252.3,260.1,252.4,260.2,252.5,260.3z"/>
<path class="st27" d="M261,244.3c-0.1,0.1-0.1,0.1-0.2,0.2c0,0,0-0.1,0-0.1C260.9,244.3,261,244.3,261,244.3
	C261,244.3,261,244.3,261,244.3z"/>
<path class="st29" d="M263.3,240.1c0.1-0.1,0.3-0.2,0.4-0.3c-0.1,0.2-0.1,0.3-0.2,0.5C263.6,240.2,263.5,240.1,263.3,240.1z"/>
<path class="st27" d="M262.4,242.3c-0.1,0.1-0.2,0.2-0.3,0.3c0-0.1,0.1-0.3,0.1-0.4C262.3,242.2,262.3,242.2,262.4,242.3z"/>
<path class="st8" d="M219.4,232.6c0.2,0.1,0.4,0.2,0.5,0.3C219.7,232.8,219.6,232.7,219.4,232.6z"/>
<path class="st9" d="M129.2,210.7c0.6,2.4,1.2,4.6,1.8,6.9c0.3,1.5,0,1.9-1.9,2c-0.7-2.4-1.5-4.9-2.1-7.4
	C126.7,211.1,127.2,210.8,129.2,210.7z"/>
<path class="st9" d="M117.6,214.4c-0.1,0-0.3,0.2-0.3,0.1c-0.1,0-0.1-0.2-0.1-0.3c0.1,0,0.3-0.2,0.3-0.1
	C117.5,214.1,117.6,214.3,117.6,214.4z"/>
<path class="st30" d="M190.1,79.5c0-0.2-0.1-0.5-0.1-0.7c0.1,0.2,0.2,0.3,0.4,0.5C190.3,79.3,190.2,79.4,190.1,79.5z"/>
<path class="st8" d="M228.1,235.8c0.7,0,1.4,0,2.1,0C229.3,236.6,229,236.6,228.1,235.8z"/>
<path class="st8" d="M226,235.5c0.4,0.1,0.8,0.1,1.2,0.2C226.8,236.1,226.4,236,226,235.5z"/>
<path class="st27" d="M149.1,260.5c-0.3-0.4-0.6-0.8-0.9-1.2c0.4,0.3,0.9,0.5,1.3,0.8C149.3,260.2,149.2,260.3,149.1,260.5z"/>
<path class="st27" d="M148.1,259.3c-0.4,0-0.8,0-1.2,0c0,0,0,0,0,0c0-0.1,0-0.2,0-0.3c0.2-0.2,0.3-0.3,0.5-0.5
	C147.6,258.7,147.9,259,148.1,259.3z"/>
<path class="st27" d="M138.1,241.8c-0.3-0.3-0.5-0.7-1-1.3c1.1,0.2,1.1,0.7,1.2,1.2L138.1,241.8z"/>
<path class="st10" d="M133.2,231.4c-0.1-0.3-0.3-0.6-0.4-0.9C132.9,230.8,133,231.1,133.2,231.4z"/>
<path class="st29" d="M136.6,238.8c0.2,0.3,0.5,0.6,0.7,1c-0.1,0.1-0.2,0.2-0.3,0.3c-0.2-0.4-0.4-0.7-0.6-1.1
	C136.4,239,136.5,238.9,136.6,238.8z"/>
<path class="st27" d="M138.2,241.7c0,0.1,0.1,0.2,0.1,0.4c-0.1-0.1-0.1-0.2-0.2-0.3C138.1,241.8,138.2,241.7,138.2,241.7z"/>
<polygon class="st27" points="138.9,242.8 138.8,242.9 138.8,242.8 "/>
<path class="st27" d="M137.2,239.8c-0.1,0.1-0.2,0.2-0.3,0.3C137.1,240,137.2,239.9,137.2,239.8z"/>
<path class="st27" d="M126.1,226.8c-0.1-0.2-0.2-0.3-0.4-0.5c0.1,0,0.2-0.1,0.3-0.1C126,226.4,126.1,226.6,126.1,226.8L126.1,226.8z
	"/>
<path class="st27" d="M125.3,224.7c0.1,0,0.3,0,0.4,0c-0.1,0.2-0.1,0.4-0.2,0.6C125.4,225.1,125.3,224.9,125.3,224.7z"/>
<path class="st27" d="M124.8,223.9c0.1,0.3,0.3,0.6,0.4,0.8C125.1,224.4,125,224.2,124.8,223.9z"/>
<path class="st27" d="M124.4,223.1c0.1,0.3,0.3,0.5,0.4,0.8C124.7,223.6,124.6,223.3,124.4,223.1z"/>
<path class="st27" d="M126.1,226.8c0.1,0.1,0.1,0.1,0.2,0.2c0,0-0.1,0-0.1,0C126.1,226.9,126.1,226.8,126.1,226.8
	C126.1,226.8,126.1,226.8,126.1,226.8z"/>
<path class="st26" d="M139.8,254.3c0.3,0.2,0.5,0.3,0.8,0.5C140.4,254.6,140.1,254.4,139.8,254.3z"/>
<path class="st26" d="M142,255.8c0.3,0.2,0.5,0.4,0.8,0.6C142.5,256.2,142.2,256,142,255.8z"/>
<path class="st8" d="M145.7,258.4c0.3,0.2,0.5,0.3,0.8,0.5C146.2,258.7,146,258.5,145.7,258.4z"/>
<path class="st26" d="M136.1,250.9c0.2,0.1,0.3,0.3,0.5,0.4C136.4,251.2,136.3,251,136.1,250.9z"/>
<path class="st26" d="M136.5,251.3c0.2,0.1,0.3,0.3,0.5,0.4C136.9,251.6,136.7,251.4,136.5,251.3z"/>
<path class="st26" d="M137,251.7c0.2,0.1,0.3,0.3,0.5,0.4C137.3,252,137.1,251.8,137,251.7z"/>
<path class="st26" d="M137.4,252.1c0.2,0.1,0.4,0.3,0.6,0.4C137.8,252.4,137.6,252.2,137.4,252.1z"/>
<path class="st26" d="M139,253.4c0.1,0.2,0.3,0.3,0.4,0.5C139.3,253.7,139.1,253.6,139,253.4z"/>
<path class="st26" d="M141.1,255.1c0.2,0.1,0.3,0.3,0.5,0.4C141.4,255.4,141.2,255.2,141.1,255.1z"/>
<path class="st26" d="M142.7,256.4c0.2,0.1,0.3,0.2,0.5,0.4C143.1,256.6,142.9,256.5,142.7,256.4z"/>
<path class="st8" d="M146.9,259c0,0.1,0,0.2,0,0.3c-0.1-0.1-0.3-0.3-0.4-0.4C146.6,258.9,146.8,258.9,146.9,259z"/>
<path class="st26" d="M143.2,256.7c0.2,0.1,0.4,0.3,0.6,0.4C143.6,257,143.4,256.9,143.2,256.7z"/>
<path class="st9" d="M160.1,271.1c0,1.6,0,2.7,0,3.8c-0.8-0.5-1.6-2.2-1.4-2.8C158.9,271.7,159.4,271.6,160.1,271.1z"/>
<path class="st8" d="M233.5,218.9c-0.1-0.3-0.3-0.6-0.4-0.9C233.2,218.3,233.4,218.6,233.5,218.9z"/>
<path class="st8" d="M234.3,221c-0.1-0.3-0.2-0.6-0.4-0.9C234.1,220.4,234.2,220.7,234.3,221z"/>
<path class="st8" d="M233.9,219.9c-0.1-0.3-0.3-0.7-0.4-1C233.6,219.2,233.8,219.6,233.9,219.9z"/>
<path class="st8" d="M230.6,213.6c-0.1-0.2-0.3-0.4-0.4-0.5C230.3,213.2,230.5,213.4,230.6,213.6z"/>
<path class="st9" d="M237.1,233.7c-0.3-2.9-0.6-5.7-1-8.8c0.6-0.1,1.1-0.1,1.6-0.2c0.2,0.3,0.3,0.4,0.3,0.5c0.4,2.1,0.9,4.2,1.3,6.3
	C239.6,233.3,239.2,233.7,237.1,233.7z"/>
<path class="st9" d="M179.9,215.9c3.6,0,6.5,2.9,6.4,6.5c-0.1,3.3-2.2,6.9-6.5,6.9c-3.6,0-6.7-3.2-6.6-6.9
	C173.3,218.7,176.3,215.8,179.9,215.9z"/>
<g>
	<path class="st12" d="M470,39.3h108.9v49.5h-44.6v46.9H574v47h-39.7v103.9H470V39.3z"/>
	<path class="st12" d="M792.9,39.3v247.3h-56.2l-0.1-167l-22.4,167h-39.9l-23.6-163.1l-0.1,163.1h-56.2V39.3h83.2
		c2.5,14.9,5,32.4,7.6,52.6l9.1,62.9l14.8-115.5H792.9z"/>
	<path class="st12" d="M962.3,39.3v247.3h-56.4l-33.5-112.4v112.4h-53.8V39.3h53.8l36,111.4V39.3H962.3z"/>
</g>
</svg>
